<?xml version="1.0" standalone="no"?>
<!DOCTYPE svg PUBLIC "-//W3C//DTD SVG 1.1//EN" "http://www.w3.org/Graphics/SVG/1.1/DTD/svg11.dtd" >
<svg xmlns="http://www.w3.org/2000/svg">
<metadata></metadata>
<defs>
<font id="vag_rounded_std_thinbold" horiz-adv-x="1175" >
<font-face units-per-em="2048" ascent="1577" descent="-471" />
<missing-glyph horiz-adv-x="548" />
<glyph unicode="&#xfb01;" horiz-adv-x="1062" d="M-43 961q0 55 36.5 92t92.5 37h66v151q0 159 85 247.5t224 88.5q45 0 83 -11t67.5 -42.5t29.5 -79.5q0 -125 -109 -125q-24 0 -35 -2t-25.5 -11.5t-20 -33t-5.5 -62.5v-120h72q144 0 144 -129q0 -38 -7.5 -63t-17.5 -38.5t-32 -20t-38 -7.5t-49 -1h-72v-679 q0 -73 -41 -118.5t-106 -45.5t-106 45.5t-41 118.5v679h-66q-60 0 -94.5 35t-34.5 95zM670 1382q0 63 50 112.5t116 49.5t115.5 -48.5t49.5 -113.5q0 -69 -48 -119.5t-117 -50.5q-66 0 -116 51t-50 119zM688 152v786q0 73 41.5 118.5t106.5 45.5t106 -45.5t41 -118.5v-786 q0 -73 -41 -118.5t-106 -45.5t-106.5 45.5t-41.5 118.5z" />
<glyph unicode="&#xfb02;" horiz-adv-x="1062" d="M-43 961q0 55 36.5 92t92.5 37h66v151q0 159 85 247.5t224 88.5q45 0 83 -11t67.5 -42.5t29.5 -79.5q0 -125 -109 -125q-24 0 -35 -2t-25.5 -11.5t-20 -33t-5.5 -62.5v-120h72q144 0 144 -129q0 -38 -7.5 -63t-17.5 -38.5t-32 -20t-38 -7.5t-49 -1h-72v-679 q0 -73 -41 -118.5t-106 -45.5t-106 45.5t-41 118.5v679h-66q-60 0 -94.5 35t-34.5 95zM688 152v1261q0 73 41.5 118.5t106.5 45.5t106 -45.5t41 -118.5v-1261q0 -73 -41 -118.5t-106 -45.5t-106.5 45.5t-41.5 118.5z" />
<glyph horiz-adv-x="2048" />
<glyph horiz-adv-x="2048" />
<glyph unicode="&#xd;" horiz-adv-x="2048" />
<glyph unicode=" "  horiz-adv-x="548" />
<glyph unicode="&#x09;" horiz-adv-x="548" />
<glyph unicode="&#xa0;" horiz-adv-x="548" />
<glyph unicode="!" horiz-adv-x="684" d="M182 135q0 66 47 113t113 47t113 -47t47 -113t-47 -113t-113 -47t-113 47t-47 113zM195 555v788q0 63 41.5 101.5t105.5 38.5q63 0 105 -39t42 -101v-788q0 -62 -42 -100.5t-105 -38.5q-64 0 -105.5 38t-41.5 101z" />
<glyph unicode="&#x22;" horiz-adv-x="909" d="M145 1012v348q0 56 33 89.5t90 33.5t90 -33.5t33 -89.5v-348q0 -56 -33 -89.5t-90 -33.5t-90 33.5t-33 89.5zM518 1012v348q0 56 33 89.5t90 33.5t90 -33.5t33 -89.5v-348q0 -56 -33 -89.5t-90 -33.5t-90 33.5t-33 89.5z" />
<glyph unicode="#" horiz-adv-x="1228" d="M0 514q0 40 25 69t73 29h205l33 234h-176q-48 0 -73.5 29t-25.5 69t25.5 69t73.5 29h205l45 330q7 54 31 76t71 22q38 0 66 -22.5t28 -58.5q0 -17 -4 -50l-41 -297h197l45 330q7 54 31 76t71 22q38 0 66 -22.5t28 -58.5q0 -17 -4 -50l-41 -297h176q48 0 73.5 -29 t25.5 -69t-25.5 -69t-73.5 -29h-204l-33 -234h176q48 0 73 -29t25 -69t-25 -69t-73 -29h-205l-45 -330q-7 -54 -31 -76t-71 -22q-38 0 -66 23t-28 59q0 16 4 49l41 297h-197l-45 -330q-7 -54 -31 -76t-71 -22q-38 0 -66.5 23t-28.5 59q0 16 4 49l41 297h-176q-48 0 -73 29 t-25 69zM502 612h194l33 234h-194z" />
<glyph unicode="$" horiz-adv-x="1099" d="M39 205q0 62 37.5 103.5t99.5 41.5q44 0 147 -36t162 -42v342q-10 3 -31 9q-43 12 -65 19t-62.5 21t-63.5 25t-57 30.5t-53.5 38.5t-43 47t-35.5 58.5t-20.5 70.5t-8.5 85q0 127 59.5 228.5t158.5 160t222 72.5v4v59q0 26 1 39t6 28.5t17 22t32 6.5t31.5 -6.5t16.5 -22 t6 -28t1 -39.5v-63q40 -1 84.5 -8t94.5 -22.5t89 -37.5t64.5 -56.5t25.5 -76.5q0 -62 -38 -107t-99 -45q-37 0 -106.5 25.5t-114.5 30.5v-273h1l1 -1h1h1h1l1 -1h1h1l1 -1q169 -48 247 -91q203 -113 209 -348v-16q0 -198 -133 -325.5t-332 -143.5v-7v-59q0 -19 -0.5 -28.5 t-3 -25t-8 -23t-16.5 -13.5t-27 -6q-26 0 -39 16t-15 32.5t-2 47.5v64q-71 2 -141 13t-142.5 34.5t-117.5 69.5t-45 108zM377 1055q0 -38 27.5 -63.5t80.5 -45.5v234q-48 -13 -78 -45t-30 -80zM596 281q63 15 98 59.5t35 105.5q0 88 -133 134v-299z" />
<glyph unicode="%" horiz-adv-x="1478" d="M63 1151q0 136 91 234t225 98t224.5 -98t90.5 -234t-90.5 -233t-224.5 -97q-135 0 -225.5 97t-90.5 233zM272 1151q0 -51 29 -86t78 -35t77.5 34.5t28.5 86.5t-28.5 87.5t-77.5 35.5t-78 -35.5t-29 -87.5zM285 76q0 36 20 76l678 1278q20 38 39.5 51.5t54.5 13.5 q48 0 84.5 -34t36.5 -81q0 -30 -16 -61l-688 -1288q-32 -45 -45 -54q-18 -14 -48 -14q-41 0 -78.5 34.5t-37.5 78.5zM784 305q0 136 91 234t225 98t224.5 -98t90.5 -234t-90.5 -233t-224.5 -97q-135 0 -225.5 97t-90.5 233zM993 305q0 -51 29 -86t78 -35t77.5 34.5 t28.5 86.5t-28.5 87.5t-77.5 35.5t-78 -35.5t-29 -87.5z" />
<glyph unicode="&#x26;" horiz-adv-x="1441" d="M49 418q0 143 85.5 255.5t223.5 188.5q-66 66 -100.5 131t-34.5 146q0 68 24.5 125t66 97t97 68t117 41t125.5 13q71 0 143 -20.5t134.5 -58.5t101.5 -101.5t39 -141.5q0 -114 -75 -207.5t-185 -150.5l215 -238l80 92q45 51 77.5 73t78.5 22t79 -36t33 -93 q0 -69 -112 -195l-52 -55l140 -158q25 -28 35 -48.5t10 -53.5q0 -53 -43 -95.5t-101 -42.5q-63 0 -108 48l-142 147q-109 -96 -215.5 -145.5t-234.5 -49.5q-139 0 -251.5 50t-181.5 152t-69 241zM344 446q0 -95 58.5 -147.5t154.5 -52.5q78 0 137 29t123 90l-297 329 q-82 -53 -129 -110.5t-47 -137.5zM530 1147q0 -44 23 -79t86 -97q149 76 149 159q0 62 -42.5 90.5t-92.5 28.5q-43 0 -83 -29.5t-40 -72.5z" />
<glyph unicode="'" horiz-adv-x="491" d="M123 1012v348q0 56 33 89.5t90 33.5t90 -33.5t33 -89.5v-348q0 -56 -33 -89.5t-90 -33.5t-90 33.5t-33 89.5z" />
<glyph unicode="(" horiz-adv-x="493" d="M80 584q0 111 21 279t70.5 347.5t113.5 245.5q24 27 67 27q53 0 92 -33.5t39 -85.5q0 -30 -39 -135q-106 -326 -106 -645q0 -339 94 -607q51 -138 51 -161q0 -58 -36.5 -94.5t-94.5 -36.5q-61 0 -106 77q-75 130 -120.5 382.5t-45.5 439.5z" />
<glyph unicode=")" horiz-adv-x="493" d="M10 -197q0 31 39 136q107 329 107 645q0 335 -95 606q-51 138 -51 162q0 58 36 94.5t95 36.5q62 0 107 -78q75 -130 120.5 -382t45.5 -439q0 -111 -21 -279t-70.5 -348t-113.5 -246q-23 -26 -68 -26q-53 0 -92 33t-39 85z" />
<glyph unicode="*" horiz-adv-x="796" d="M59 961q0 27 18 48t38.5 31t56 24t49.5 21q-15 8 -50 22.5t-55.5 24.5t-38.5 31.5t-18 48.5q0 47 29 83t74 36q16 0 35 -8.5t32 -17.5t39.5 -28.5t40.5 -29.5q-2 16 -9 63.5t-7 65.5q0 48 29.5 71t74.5 23t75 -23t30 -71q0 -18 -7.5 -65t-9.5 -64q12 9 38.5 29.5t39.5 29 t32 17t36 8.5q44 0 75 -36.5t31 -82.5q0 -27 -18 -48.5t-38.5 -31.5t-56.5 -24.5t-51 -22.5q14 -7 40.5 -17t45 -18t38 -20t30 -29.5t10.5 -39.5q0 -46 -31 -83.5t-75 -37.5q-17 0 -36 8.5t-32.5 18t-38.5 29.5t-39 30q2 -17 9.5 -64t7.5 -65q0 -48 -30 -71.5t-75 -23.5 t-74.5 23.5t-29.5 71.5q0 19 7 66t9 63q-15 -11 -40.5 -30t-39.5 -29t-32.5 -18.5t-34.5 -8.5q-45 0 -74 37t-29 84z" />
<glyph unicode="+" horiz-adv-x="1228" d="M72 518q0 56 33 89.5t90 33.5h297v297q0 56 32.5 89.5t89.5 33.5t90 -33.5t33 -89.5v-297h297q57 0 90 -33.5t33 -89.5t-33 -89.5t-90 -33.5h-297v-297q0 -56 -33 -89.5t-90 -33.5t-89.5 33.5t-32.5 89.5v297h-297q-57 0 -90 33.5t-33 89.5z" />
<glyph unicode="," horiz-adv-x="548" d="M-20 -139q0 28 24 82l170 307q19 32 54.5 50.5t64.5 18.5q56 0 98.5 -40t42.5 -95q0 -24 -26 -82l-172 -307q-17 -32 -52.5 -50.5t-64.5 -18.5q-56 0 -97.5 40t-41.5 95z" />
<glyph unicode="-" horiz-adv-x="796" d="M63 592q0 56 30.5 91.5t86.5 39.5h436q56 -4 86.5 -39.5t30.5 -91.5q0 -54 -30.5 -88.5t-86.5 -38.5h-436q-56 4 -86.5 38.5t-30.5 88.5z" />
<glyph unicode="." horiz-adv-x="548" d="M115 135q0 66 46.5 113t112.5 47t113 -47t47 -113t-47 -113t-113 -47t-112.5 47t-46.5 113z" />
<glyph unicode="/" horiz-adv-x="833" d="M16 88q0 11 19 57l547 1262q30 76 114 76q51 0 86 -33t35 -80q0 -14 -18 -57l-545 -1262q-17 -37 -43 -56.5t-72 -19.5q-51 0 -87 33t-36 80z" />
<glyph unicode="0" d="M45 729q0 106 16 207t56 202t100.5 176t156 122t214.5 47t214.5 -47t155.5 -122t100 -176t56 -202t16 -207t-16 -207t-56 -202t-100 -176t-155.5 -122t-214.5 -47t-214.5 47t-156 122t-100.5 176t-56 202t-16 207zM365 729q0 -38 1.5 -72.5t6.5 -84.5t14 -91t26 -85 t39.5 -74t57.5 -49t78 -19t78 19t57.5 49t39.5 74t26 85t14 91t6.5 84.5t1.5 72.5q0 475 -223 475t-223 -475z" />
<glyph unicode="1" horiz-adv-x="757" d="M51 1317q0 57 38 99t101 42h291q64 0 100.5 -40.5t36.5 -104.5v-1166q0 -75 -42.5 -117t-110.5 -42t-111 42t-43 117v1029h-121q-69 0 -104 41.5t-35 99.5z" />
<glyph unicode="2" d="M92 135q0 46 47 105q55 66 163.5 187.5t193 223t153.5 201.5q72 103 72 190q0 64 -43 111t-105 47q-48 0 -81.5 -18.5t-51 -47.5t-30 -64.5t-23 -71t-25 -64.5t-41.5 -47.5t-67 -18.5q-70 0 -110 43.5t-40 106.5q0 94 40 181t106 148.5t154.5 98.5t181.5 37 q126 0 229 -51.5t164 -149.5t61 -225q0 -68 -25 -143t-62.5 -138.5t-93.5 -137.5t-104.5 -129t-110 -125.5t-95.5 -113.5h375q71 0 115 -34t44 -101t-42 -101t-105 -34h-684q-72 0 -116 34t-44 101z" />
<glyph unicode="3" d="M66 360q0 58 49.5 98t107.5 40q32 0 57.5 -18t40.5 -44.5t36.5 -57.5t44 -57.5t64 -44.5t95.5 -18q80 0 136.5 55t56.5 136q0 58 -19 94.5t-50 51.5t-68 22.5t-74 13t-68 16.5t-50 40.5t-19 78.5q0 59 30 90.5t72.5 42.5t85 22.5t72.5 45.5t30 96q0 60 -39.5 98.5 t-107.5 38.5q-46 0 -81 -15t-54.5 -37t-39 -48.5t-34.5 -48.5t-40.5 -37t-57.5 -15q-60 0 -96.5 45.5t-36.5 106.5q0 79 63.5 156t168 126.5t214.5 49.5q85 0 158 -23.5t123 -62t86 -88t52.5 -101t16.5 -100.5q0 -206 -168 -313q113 -52 181.5 -150t68.5 -217 q0 -186 -150 -319.5t-366 -133.5q-87 0 -166.5 24.5t-137.5 64.5t-101 90.5t-64.5 103.5t-21.5 102z" />
<glyph unicode="4" d="M33 442q0 43 28 90l459 832q34 63 82.5 91t126.5 28q99 0 167.5 -66t68.5 -196v-629h34q61 0 102.5 -37.5t41.5 -97.5t-41.5 -97.5t-102.5 -37.5h-34v-175q0 -82 -35 -120.5t-113 -38.5q-77 0 -112 38.5t-35 120.5v175h-494q-69 0 -106 37t-37 83zM389 592h281v571h-4z " />
<glyph unicode="5" d="M66 250q0 57 41 98t98 41q27 0 65 -20.5t72.5 -45t84 -45t95.5 -20.5q68 0 119 41t74.5 100.5t23.5 126.5q0 94 -51.5 150.5t-144.5 56.5q-61 0 -126.5 -33.5t-115.5 -33.5q-55 0 -88 32t-33 64l6 69l52 433q17 117 50 155.5t109 38.5h494q69 0 109 -36t40 -93 q0 -40 -11.5 -70t-27.5 -45t-38 -24.5t-36.5 -11.5t-29.5 -2h-385l-31 -218q103 21 154 21q183 0 303.5 -126.5t120.5 -309.5q0 -262 -141 -415t-402 -153q-58 0 -132 18.5t-146.5 51t-122 87t-49.5 118.5z" />
<glyph unicode="6" d="M74 483q0 110 51.5 248t131.5 265t167.5 237t169.5 186q21 21 65 49q25 15 62 15q45 0 95 -48.5t50 -101.5q0 -31 -43 -84q-28 -35 -135.5 -153.5t-146.5 -173.5l4 -4q55 24 129 24q120 0 219 -64t154 -169.5t55 -225.5q0 -99 -38 -191.5t-104.5 -162.5t-163.5 -112 t-208 -42q-115 0 -212.5 41t-163 111t-102 162t-36.5 194zM393 483q0 -90 53 -151.5t142 -61.5q86 0 140 61t54 152q0 88 -51 150.5t-143 62.5q-87 0 -141 -60.5t-54 -152.5z" />
<glyph unicode="7" horiz-adv-x="1101" d="M31 1317q0 61 36 101t115 40h742q70 0 108.5 -48.5t38.5 -98.5q0 -39 -47 -135l-508 -1033q-47 -95 -77 -125t-95 -30q-78 0 -124 47t-46 98q0 29 21 72l512 971h-525q-77 0 -114 41t-37 100z" />
<glyph unicode="8" d="M82 442q0 119 59 209.5t160 145.5q-156 114 -156 293q0 176 127.5 284.5t315.5 108.5q120 0 220.5 -47t162 -138t61.5 -208q0 -88 -42 -167t-116 -126q105 -53 162.5 -145t57.5 -210q0 -138 -69.5 -246t-184 -164.5t-252.5 -56.5q-215 0 -360.5 132t-145.5 335zM401 463 q0 -84 49 -144.5t138 -60.5q84 0 135 61t51 144q0 96 -50.5 150.5t-135.5 54.5q-87 0 -137 -58t-50 -147zM440 1057q0 -70 39.5 -113t108.5 -43t109 43t40 113q0 68 -39.5 111.5t-109.5 43.5t-109 -43.5t-39 -111.5z" />
<glyph unicode="9" d="M74 975q0 99 38 191.5t104.5 162.5t163.5 112t208 42q115 0 212.5 -41t163 -111t102 -162t36.5 -194q0 -110 -51.5 -248t-131.5 -265t-167.5 -237t-169.5 -186q-19 -19 -66 -49q-25 -15 -61 -15q-45 0 -95.5 48.5t-50.5 101.5q0 31 43 84q28 35 136 154t147 174l-4 4 q-58 -25 -129 -25q-120 0 -219 64t-154 169.5t-55 225.5zM393 975q0 -88 51.5 -150.5t143.5 -62.5q87 0 140.5 60.5t53.5 152.5q0 90 -52.5 151.5t-141.5 61.5q-86 0 -140.5 -61t-54.5 -152z" />
<glyph unicode=":" horiz-adv-x="548" d="M115 135q0 66 46.5 113t112.5 47t113 -47t47 -113t-47 -113t-113 -47t-112.5 47t-46.5 113zM115 793q0 66 46.5 112.5t112.5 46.5t113 -46.5t47 -112.5t-47 -113t-113 -47t-112.5 47t-46.5 113z" />
<glyph unicode=";" horiz-adv-x="548" d="M-20 -139q0 28 24 82l170 307q19 32 54.5 50.5t64.5 18.5q56 0 98.5 -40t42.5 -95q0 -24 -26 -82l-172 -307q-17 -32 -52.5 -50.5t-64.5 -18.5q-56 0 -97.5 40t-41.5 95zM115 793q0 66 46.5 112.5t112.5 46.5t113 -46.5t47 -112.5t-47 -113t-113 -47t-112.5 47t-46.5 113 z" />
<glyph unicode="&#x3c;" horiz-adv-x="1228" d="M72 518q0 86 75 117l809 371q61 30 103 30q41 0 69.5 -34t28.5 -95q0 -72 -74 -104l-682 -285l682 -285q74 -32 74 -104q0 -61 -28.5 -95t-69.5 -34q-40 0 -103 29l-809 372q-75 31 -75 117z" />
<glyph unicode="=" horiz-adv-x="1228" d="M72 289q0 56 33 89.5t90 33.5h839q57 0 90 -33.5t33 -89.5t-33 -89.5t-90 -33.5h-839q-57 0 -90 33.5t-33 89.5zM72 748q0 56 33 89t90 33h839q57 0 90 -33t33 -89t-33 -89.5t-90 -33.5h-839q-57 0 -90 33.5t-33 89.5z" />
<glyph unicode="&#x3e;" horiz-adv-x="1228" d="M72 129q0 72 73 104l682 285l-682 285q-73 32 -73 104q0 61 28.5 95t69.5 34t102 -30l809 -371q76 -32 76 -117t-76 -117l-809 -372q-63 -29 -102 -29q-41 0 -69.5 34t-28.5 95z" />
<glyph unicode="?" horiz-adv-x="985" d="M6 1145q0 77 45 143t114 107.5t147 64.5t149 23q133 0 243.5 -51.5t178 -153t67.5 -234.5q0 -164 -94.5 -267.5t-259.5 -145.5v-74q0 -62 -41.5 -101.5t-105.5 -39.5q-68 0 -108 39t-40 102v205q0 15 4 27.5t15 22.5t19 16.5t28 13t29.5 9.5t35.5 9.5t35 9.5 q37 10 61.5 20.5t50.5 30t39 50t13 73.5q0 66 -51.5 111t-118.5 45q-48 0 -87 -21t-66.5 -50.5t-52.5 -59.5t-56.5 -51t-67.5 -21q-56 0 -90.5 40.5t-34.5 107.5zM289 135q0 66 47 113t113 47t112.5 -47t46.5 -113t-46.5 -113t-112.5 -47t-113 47t-47 113z" />
<glyph unicode="@" horiz-adv-x="1638" d="M66 729q0 153 59.5 292.5t160.5 240.5t240.5 161t292.5 60q114 0 225.5 -31.5t206 -91.5t167 -139.5t114 -182t41.5 -213.5q0 -82 -24 -154t-62.5 -123.5t-89 -93.5t-101.5 -69t-101 -45t-87 -25.5t-61 -7.5q-73 0 -107.5 28t-34.5 73h-4q-40 -47 -97 -74t-118 -27 q-126 0 -214.5 110t-88.5 247q0 118 48 221t140.5 169t210.5 66q161 0 240 -123h4v25q0 98 115 98q40 0 67 -15t27 -42q0 -26 -8 -66l-82 -372q-8 -32 -8 -68q0 -43 47 -43q25 0 57.5 18.5t66.5 53.5t57.5 98t23.5 141q0 141 -81 251t-210 166t-279 56q-155 0 -286 -76 t-207 -207t-76 -286t76 -286t207 -207t286 -76q246 0 426 96q12 6 63 47t74 41q31 0 53.5 -17t22.5 -59q0 -27 -12.5 -50t-42.5 -60q-202 -183 -584 -183q-153 0 -292.5 60t-240.5 161t-160.5 240.5t-59.5 292.5zM592 692q0 -71 37.5 -123.5t105.5 -52.5q88 0 146.5 66 t58.5 155q0 72 -42.5 123t-113.5 51q-79 0 -135.5 -69.5t-56.5 -149.5z" />
<glyph unicode="A" horiz-adv-x="1290" d="M4 131q0 33 14 68l412 1114q28 74 86 122t133 48q79 0 135 -46.5t84 -123.5l402 -1114q16 -44 16 -76q0 -59 -41.5 -97t-99.5 -38q-115 0 -150 106l-61 193h-569l-62 -191q-34 -108 -147 -108q-62 0 -107 41t-45 102zM453 569h389l-191 594h-4z" />
<glyph unicode="B" d="M92 156v1149q0 72 45 112.5t117 40.5h393q163 0 274 -100t111 -260q0 -213 -190 -301v-4q132 -19 221.5 -118t89.5 -231q0 -212 -129 -328t-346 -116h-422q-72 0 -118 42.5t-46 113.5zM399 270h242q86 0 139.5 47.5t53.5 131.5q0 74 -56.5 117.5t-161.5 43.5h-217v-340z M399 881h160q76 0 121 42.5t45 118.5q0 69 -47.5 107.5t-118.5 38.5h-160v-307z" />
<glyph unicode="C" horiz-adv-x="1251" d="M35 729q0 212 88 383.5t249.5 271t366.5 99.5q64 0 133.5 -11.5t142 -35.5t119 -72t46.5 -111q0 -57 -35.5 -97t-91.5 -40q-33 0 -76 18t-103.5 36t-134.5 18q-93 0 -167 -37.5t-121 -101.5t-72 -147.5t-25 -178.5q0 -93 25 -174t72.5 -143.5t121.5 -99t166 -36.5 q74 0 137.5 21.5t109.5 43t79 21.5q62 0 98.5 -47.5t36.5 -91.5q0 -56 -34 -100.5t-84 -70t-115.5 -42.5t-121 -23t-106.5 -6q-204 0 -365.5 100t-250 271.5t-88.5 382.5z" />
<glyph unicode="D" horiz-adv-x="1366" d="M92 154v1146q0 70 44.5 114t113.5 44h340q340 0 530.5 -202t190.5 -547q0 -322 -192 -515.5t-509 -193.5h-356q-62 0 -112 37.5t-50 116.5zM399 283h207q96 0 171 34t121 94t69.5 139t23.5 173q0 100 -24 181.5t-72 143t-126.5 95t-182.5 33.5h-187v-893z" />
<glyph unicode="E" horiz-adv-x="948" d="M92 154v1126q0 80 40.5 129t119.5 49h508q69 0 107 -41.5t38 -99.5q0 -57 -38.5 -99t-106.5 -42h-361v-299h336q71 0 110.5 -42t39.5 -100q0 -57 -40 -99t-110 -42h-336v-311h379q69 0 107.5 -42t38.5 -100q0 -57 -39 -99t-107 -42h-528q-68 0 -113 43t-45 111z" />
<glyph unicode="F" horiz-adv-x="909" d="M92 147v1151q0 66 43.5 113t116.5 47h524q64 0 100.5 -41.5t36.5 -99.5q0 -57 -36 -99t-101 -42h-377v-299h318q69 0 108 -41.5t39 -98.5q0 -58 -39 -100.5t-108 -42.5h-318v-447q0 -75 -42.5 -117t-110.5 -42t-111 42t-43 117z" />
<glyph unicode="G" horiz-adv-x="1441" d="M35 729q0 212 88 383.5t249.5 271t366.5 99.5q150 0 281.5 -42.5t207 -109t75.5 -137.5q0 -65 -36 -104t-91 -39q-38 0 -72 15.5t-65.5 37.5t-69 43.5t-97 37t-133.5 15.5q-93 0 -167.5 -38.5t-121.5 -104.5t-71.5 -150t-24.5 -178q0 -129 41 -233.5t130 -171t214 -66.5 q64 0 123.5 18.5t111 55.5t82.5 101.5t31 148.5h-208q-63 0 -103.5 40t-40.5 103t41.5 101t102.5 38h348q95 0 137.5 -48t42.5 -148q0 -197 -80.5 -354t-233.5 -248t-354 -91q-204 0 -365.5 100t-250 271.5t-88.5 382.5z" />
<glyph unicode="H" horiz-adv-x="1441" d="M92 147v1164q0 75 43 117t111 42t110.5 -42t42.5 -117v-434h643v434q0 75 43 117t111 42t111 -42t43 -117v-1164q0 -75 -43 -117t-111 -42t-111 42t-43 117v447h-643v-447q0 -75 -42.5 -117t-110.5 -42t-111 42t-43 117z" />
<glyph unicode="I" horiz-adv-x="491" d="M92 147v1164q0 75 43 117t111 42t110.5 -42t42.5 -117v-1164q0 -75 -42.5 -117t-110.5 -42t-111 42t-43 117z" />
<glyph unicode="J" horiz-adv-x="833" d="M-29 209q0 45 33.5 85t81.5 40q40 0 119.5 -38t126.5 -38q33 0 56 12.5t34 28t17 43.5t6.5 43.5t0.5 44.5v881q0 75 43 117t111 42t111 -42t43 -117v-901q0 -99 -24.5 -177t-64.5 -125.5t-94.5 -78t-108.5 -42.5t-114 -12q-45 0 -93.5 7t-100 24.5t-91.5 43t-66 67 t-26 92.5z" />
<glyph unicode="K" horiz-adv-x="1251" d="M92 135v1184q0 64 43 107.5t111 43.5q67 0 110 -41t43 -110v-442l504 536q52 57 119 57q61 0 106.5 -41.5t45.5 -105.5q0 -38 -23 -73.5t-78 -90.5l-387 -381l473 -493q42 -42 64 -78t22 -78q0 -68 -46 -104.5t-114 -36.5q-41 0 -74 22t-81 74l-531 573v-522 q0 -61 -42.5 -104t-110.5 -43q-67 0 -110.5 40.5t-43.5 106.5z" />
<glyph unicode="L" horiz-adv-x="872" d="M92 168v1143q0 75 43 117t111 42t110.5 -42t42.5 -117v-1028h365q73 -1 111 -45q36 -42 36 -97v-6q-3 -55 -43 -95t-104 -40h-512q-74 0 -117 45.5t-43 122.5z" />
<glyph unicode="M" horiz-adv-x="1781" d="M49 135q0 23 2 35l191 1143q10 60 66.5 108.5t133.5 48.5q73 0 130 -44t75 -103l242 -811h4l242 811q18 59 74.5 103t129.5 44q77 0 134 -48.5t67 -108.5l191 -1143q2 -12 2 -35q0 -66 -42.5 -106.5t-105.5 -40.5q-76 0 -112.5 34.5t-47.5 108.5l-120 834h-5l-245 -859 q-34 -118 -164 -118t-164 118l-246 859h-4l-121 -834q-11 -74 -47 -108.5t-112 -34.5q-63 0 -105.5 40.5t-42.5 106.5z" />
<glyph unicode="N" horiz-adv-x="1402" d="M80 147v1164q0 75 42.5 117t110.5 42q30 0 69.5 -20t59.5 -47l650 -866h4v774q0 75 42.5 117t110.5 42t111 -42t43 -117v-1164q0 -75 -43 -117t-111 -42q-30 0 -69 20t-60 47l-649 856h-4v-764q0 -75 -43 -117t-111 -42t-110.5 42t-42.5 117z" />
<glyph unicode="O" horiz-adv-x="1478" d="M35 729q0 212 88 383.5t249.5 271t366.5 99.5q202 0 364 -101.5t251.5 -273.5t89.5 -379q0 -158 -51.5 -296.5t-143 -239.5t-224 -159.5t-286.5 -58.5q-204 0 -365.5 100t-250 271.5t-88.5 382.5zM354 729q0 -129 41 -233.5t130 -171t214 -66.5t214 66.5t130 171 t41 233.5q0 94 -24.5 178t-71.5 150t-121.5 104.5t-167.5 38.5t-167.5 -38.5t-121.5 -104.5t-71.5 -150t-24.5 -178z" />
<glyph unicode="P" horiz-adv-x="1138" d="M92 147v1151q0 73 42.5 116.5t117.5 43.5h362q228 0 376.5 -135.5t148.5 -353.5q0 -109 -40.5 -201.5t-110 -154t-163 -96t-198.5 -34.5h-228v-336q0 -75 -42.5 -117t-110.5 -42t-111 42t-43 117zM399 754h209q95 0 153 61.5t58 155.5t-58 155.5t-153 61.5h-209v-434z " />
<glyph unicode="Q" horiz-adv-x="1478" d="M35 729q0 212 88 383.5t249.5 271t366.5 99.5q202 0 364 -101.5t251.5 -273.5t89.5 -379q0 -277 -137 -473l116 -100q36 -32 54 -59t18 -66q0 -53 -43.5 -91t-97.5 -38q-61 0 -137 65l-117 99q-160 -91 -361 -91q-204 0 -365.5 100t-250 271.5t-88.5 382.5zM354 729 q0 -129 41 -233.5t130 -171t214 -66.5q59 0 131 14l-73 72q-39 34 -39 82q0 62 38.5 104.5t100.5 42.5q37 0 78 -26l100 -80q49 109 49 262q0 93 -24.5 177t-71.5 150t-121.5 105t-167.5 39t-167.5 -38.5t-121.5 -104.5t-71.5 -150t-24.5 -178z" />
<glyph unicode="R" horiz-adv-x="1138" d="M92 147v1151q0 74 41 117t117 43h360q244 0 377 -114t133 -349q0 -161 -106 -261t-273 -126l349 -372q40 -43 40 -91q0 -62 -44 -109.5t-109 -47.5q-74 0 -119 53l-455 551h-4v-445q0 -75 -42.5 -117t-110.5 -42t-111 42t-43 117zM399 813h211q86 0 138.5 48.5 t52.5 133.5q0 86 -52 133.5t-139 47.5h-211v-363z" />
<glyph unicode="S" horiz-adv-x="1099" d="M39 205q0 62 37.5 103.5t99.5 41.5q43 0 158 -40t186 -40q98 0 153.5 49t55.5 127q0 38 -23.5 67t-63 48t-91 35t-108 32t-113 35.5t-108 49.5t-91 69t-63 99.5t-23.5 136.5q0 139 70.5 246.5t185.5 163t252 55.5q39 0 86.5 -5.5t104.5 -20.5t102.5 -37t76.5 -59t31 -83 q0 -62 -38 -107t-99 -45q-37 0 -121.5 31t-150.5 31q-70 0 -119 -35.5t-49 -97.5q0 -33 23.5 -58.5t63 -42.5t91 -32t108 -32.5t113 -39t108 -55.5t91 -78.5t63 -112.5t23.5 -153q0 -142 -72.5 -252t-191 -167t-260.5 -57q-44 0 -92 4t-107 12.5t-110 26t-94.5 42t-69 62 t-25.5 83.5z" />
<glyph unicode="T" horiz-adv-x="983" d="M-25 1317q0 57 38.5 99t101.5 42h753q63 0 101.5 -42t38.5 -99q0 -58 -35.5 -99.5t-104.5 -41.5h-223v-1029q0 -75 -42.5 -117t-110.5 -42t-111 42t-43 117v1029h-223q-69 0 -104.5 41.5t-35.5 99.5z" />
<glyph unicode="U" horiz-adv-x="1402" d="M80 580v731q0 75 42.5 117t110.5 42t111 -42t43 -117v-715q0 -145 86 -241.5t229 -96.5q136 0 225 99.5t89 238.5v715q0 75 42.5 117t110.5 42t111 -42t43 -117v-731q0 -168 -84.5 -308t-227 -218.5t-309.5 -78.5q-169 0 -311.5 78t-226.5 217.5t-84 309.5z" />
<glyph unicode="V" horiz-adv-x="1212" d="M-8 1323q0 63 47.5 105t110.5 42q90 0 139 -100l317 -852l318 852q49 100 139 100q63 0 110.5 -42t47.5 -105q0 -35 -15 -76l-448 -1141q-24 -58 -57 -88t-95 -30t-94.5 30t-56.5 88l-449 1141q-14 38 -14 76z" />
<glyph unicode="W" horiz-adv-x="1859" d="M16 1335q0 53 41 94t105 41q135 0 164 -147l174 -870h4l266 897q17 56 60 88t100 32t100 -32t60 -88l266 -897h4l174 870q29 147 164 147q64 0 104.5 -41t40.5 -94q0 -33 -8 -69l-260 -1119q-16 -69 -68.5 -114t-134.5 -45q-73 0 -128.5 42t-74.5 107l-237 791h-4 l-238 -791q-19 -65 -74.5 -107t-128.5 -42q-82 0 -134 45t-68 114l-260 1119q-9 40 -9 69z" />
<glyph unicode="X" horiz-adv-x="1253" d="M8 131q0 55 35 105l406 544l-332 451q-33 45 -33 90q0 66 44.5 107.5t111.5 41.5q37 0 73.5 -21.5t59.5 -53.5l254 -361l254 361q23 32 59.5 53.5t73.5 21.5q67 0 111 -41t44 -108q0 -47 -32 -90l-332 -451l405 -544q35 -50 35 -105q0 -64 -43.5 -103.5t-111.5 -39.5 q-79 0 -127 67l-336 467l-336 -467q-48 -67 -127 -67q-68 0 -112 39.5t-44 103.5z" />
<glyph unicode="Y" horiz-adv-x="1097" d="M-20 1321q0 62 41.5 105.5t105.5 43.5q85 0 127 -61l295 -428l295 428q42 61 127 61q64 0 105.5 -43.5t41.5 -105.5q0 -50 -28 -92l-388 -545v-547q0 -63 -38 -106t-115 -43t-115.5 43t-38.5 106v547l-387 545q-28 42 -28 92z" />
<glyph unicode="Z" horiz-adv-x="1214" d="M45 147q0 63 41 119l659 922h-538q-63 0 -103.5 35t-40.5 96q0 58 42.5 98.5t101.5 40.5h749q83 0 127.5 -43.5t44.5 -103.5q0 -73 -45 -131l-655 -910h594q66 0 106.5 -35.5t40.5 -99.5q0 -57 -45 -96t-102 -39h-805q-80 0 -126 40.5t-46 106.5z" />
<glyph unicode="[" horiz-adv-x="569" d="M90 -168v1503q0 67 41 107.5t109 40.5h204q48 0 78.5 -29t30.5 -88t-30.5 -88t-78.5 -29h-96v-1331h96q48 0 78.5 -29t30.5 -88t-30.5 -87.5t-78.5 -28.5h-204q-68 0 -109 40t-41 107z" />
<glyph unicode="\" horiz-adv-x="833" d="M16 1370q0 47 35 80t86 33q85 0 115 -76l547 -1262q18 -43 18 -57q0 -47 -36 -80t-87 -33q-46 0 -71.5 19.5t-40.5 56.5l-549 1262q-17 49 -17 57z" />
<glyph unicode="]" horiz-adv-x="569" d="M16 -199q0 59 30.5 88t78.5 29h96v1331h-96q-48 0 -78.5 29t-30.5 88t30.5 88t78.5 29h205q68 0 108.5 -40.5t40.5 -107.5v-1503q0 -67 -40.5 -107t-108.5 -40h-205q-48 0 -78.5 28.5t-30.5 87.5z" />
<glyph unicode="^" horiz-adv-x="1228" d="M150 727q0 32 26 82l330 600q31 61 108 61q78 0 109 -61l330 -600q26 -50 26 -82q0 -40 -29.5 -61t-74.5 -21q-73 0 -105 45l-256 473l-256 -473q-32 -45 -104 -45q-45 0 -74.5 21t-29.5 61z" />
<glyph unicode="_" horiz-adv-x="1024" d="M-59 -205q0 24 16.5 37.5t42.5 13.5h1024q26 0 42.5 -13.5t16.5 -37.5t-16.5 -37.5t-42.5 -13.5h-1024q-26 0 -42.5 13.5t-16.5 37.5z" />
<glyph unicode="`" horiz-adv-x="454" d="M-25 1456q0 44 33.5 85.5t77.5 41.5q26 0 78 -20l242 -99l16 -8q26 -13 41.5 -36t15.5 -46q0 -56 -32 -102.5t-76 -46.5h-18.5t-11 1.5t-9.5 3t-15.5 6t-27.5 9.5l-230 90q-84 29 -84 121z" />
<glyph unicode="a" d="M41 543q0 159 65 290.5t177 206t245 74.5q85 0 159 -34t122 -101q6 54 46.5 88.5t94.5 34.5q29 0 52 -7t38 -17.5t25 -28t15.5 -32t8 -37.5t3 -36t0.5 -35v-729q0 -31 -1 -50t-8.5 -49.5t-21.5 -48t-42.5 -31t-68.5 -13.5q-61 0 -93 31t-48 94q-117 -138 -281 -138 q-209 0 -348 160.5t-139 407.5zM336 543q0 -74 24 -139.5t78.5 -111.5t130.5 -46q73 0 126.5 45.5t77.5 111.5t24 140t-23.5 140.5t-77 113.5t-127.5 47q-77 0 -131.5 -47t-78 -113t-23.5 -141z" />
<glyph unicode="b" d="M84 152v1261q0 73 41 118.5t106 45.5t106.5 -45.5t41.5 -118.5v-401q117 102 280 102q114 0 207 -50.5t150.5 -134.5t88 -186.5t30.5 -212.5q0 -105 -35 -204.5t-96.5 -177.5t-154 -125.5t-200.5 -47.5q-79 0 -155 35.5t-115 100.5q-28 -123 -148 -123q-65 0 -106 45.5 t-41 118.5zM379 553q0 -76 23 -143.5t77 -115.5t131 -48q73 0 127 46.5t78.5 112.5t24.5 138q0 73 -24.5 140t-78.5 114t-127 47q-57 0 -102.5 -25t-72.5 -67t-41.5 -93t-14.5 -106z" />
<glyph unicode="c" horiz-adv-x="948" d="M41 543q0 111 39.5 215t107.5 182.5t167.5 126t213.5 47.5q50 0 107 -9.5t116.5 -29.5t98.5 -58.5t39 -88.5q0 -51 -32 -96.5t-81 -45.5q-35 0 -109 29t-124 29q-80 0 -138 -44.5t-84 -111t-26 -145.5q0 -75 28 -141.5t86 -111t134 -44.5q42 0 124 30.5t95 30.5 q52 0 89.5 -38t37.5 -91t-40.5 -95t-101 -64t-117.5 -33t-102 -11q-154 0 -276 78t-187 207t-65 283z" />
<glyph unicode="d" d="M41 530q0 110 30.5 212.5t87.5 186.5t150 134.5t207 50.5q164 0 281 -102v401q0 73 41 118.5t106 45.5t106.5 -45.5t41.5 -118.5v-1261q0 -73 -41.5 -118.5t-106.5 -45.5q-119 0 -147 123q-39 -64 -115 -100t-156 -36q-108 0 -200.5 47.5t-154 125.5t-96 177.5 t-34.5 204.5zM336 543q0 -72 24 -138t78 -112.5t127 -46.5q58 0 104 27.5t73 72.5t41 98t14 109q0 75 -24 139t-78.5 108t-129.5 44q-73 0 -127 -47t-78 -114t-24 -140z" />
<glyph unicode="e" horiz-adv-x="1099" d="M20 543q0 150 66.5 280t189 210.5t273.5 80.5q115 0 216.5 -49t169 -127t106 -172.5t38.5 -187.5q0 -67 -31 -99.5t-98 -32.5h-628q14 -104 91.5 -158.5t186.5 -54.5q51 0 105 18.5t90 41t75 41t64 18.5q47 0 84 -39.5t37 -87.5q0 -61 -74.5 -120t-187 -94.5 t-220.5 -35.5q-246 0 -399.5 160.5t-153.5 407.5zM315 643h469q-12 100 -73.5 162.5t-161.5 62.5q-96 0 -159.5 -64t-74.5 -161z" />
<glyph unicode="f" horiz-adv-x="606" d="M-43 961q0 55 36.5 92t92.5 37h66v151q0 159 85 247.5t224 88.5q57 0 100.5 -11.5t74 -42.5t30.5 -79q0 -64 -29.5 -94.5t-91.5 -30.5q-25 0 -37.5 -2t-29.5 -11.5t-24.5 -33t-7.5 -62.5v-120h93q149 0 149 -129q0 -66 -40.5 -98t-108.5 -32h-93v-679q0 -73 -41 -118.5 t-106 -45.5t-106 45.5t-41 118.5v679h-66q-60 0 -94.5 35t-34.5 95z" />
<glyph unicode="g" d="M41 541q0 150 58 279.5t171 211.5t256 82q80 0 156 -35.5t115 -99.5q28 123 147 123q65 0 106.5 -45.5t41.5 -118.5v-852q0 -173 -72.5 -294t-199 -179.5t-296.5 -58.5q-40 0 -95 7t-120.5 24.5t-120.5 41.5t-92 63t-37 85q0 42 38.5 85.5t80.5 43.5q37 0 94.5 -23 t129.5 -46t145 -23q111 0 180.5 61.5t69.5 171.5v70h-4q-95 -140 -297 -140q-112 0 -201 47t-143 126.5t-82.5 180t-28.5 212.5zM336 547q0 -127 59.5 -214t169.5 -87q75 0 129.5 44t78.5 108t24 139q0 56 -14 109t-41 98t-73 72.5t-104 27.5q-73 0 -127 -46.5t-78 -112.5 t-24 -138z" />
<glyph unicode="h" horiz-adv-x="1138" d="M84 152v1261q0 73 41 118.5t106 45.5t106.5 -45.5t41.5 -118.5v-401h4q42 53 116 77.5t152 24.5q178 0 291 -107t113 -290v-565q0 -73 -41.5 -118.5t-106.5 -45.5t-106 45.5t-41 118.5v514q0 98 -54.5 150t-138.5 52q-88 0 -138 -56.5t-50 -145.5v-514 q0 -73 -41.5 -118.5t-106.5 -45.5t-106 45.5t-41 118.5z" />
<glyph unicode="i" horiz-adv-x="454" d="M61 1382q0 63 50 112.5t116 49.5t116 -49t50 -113q0 -69 -48.5 -119.5t-117.5 -50.5q-66 0 -116 51t-50 119zM80 152v786q0 73 41 118.5t106 45.5t106.5 -45.5t41.5 -118.5v-786q0 -73 -41.5 -118.5t-106.5 -45.5t-106 45.5t-41 118.5z" />
<glyph unicode="j" horiz-adv-x="454" d="M61 1382q0 63 50 112.5t116 49.5t116 -49t50 -113q0 -69 -48.5 -119.5t-117.5 -50.5q-66 0 -116 51t-50 119zM80 -283v1221q0 73 41 118.5t106 45.5t106.5 -45.5t41.5 -118.5v-1221q0 -73 -41.5 -118t-106.5 -45t-106 45t-41 118z" />
<glyph unicode="k" horiz-adv-x="1024" d="M84 152v1261q0 73 41 118.5t106 45.5t106.5 -45.5t41.5 -118.5v-688l323 313q67 64 134 64q54 0 89.5 -40.5t35.5 -92.5q0 -64 -58 -117l-262 -234l346 -405q37 -42 37 -98q0 -59 -40.5 -99.5t-98.5 -40.5q-67 0 -142 91l-360 444h-4v-358q0 -73 -41.5 -118.5 t-106.5 -45.5t-106 45.5t-41 118.5z" />
<glyph unicode="l" horiz-adv-x="454" d="M80 152v1261q0 73 41 118.5t106 45.5t106.5 -45.5t41.5 -118.5v-1261q0 -73 -41.5 -118.5t-106.5 -45.5t-106 45.5t-41 118.5z" />
<glyph unicode="m" horiz-adv-x="1744" d="M84 152v786q0 73 41 118.5t106 45.5q57 0 92.5 -29t43.5 -82q114 123 274 123q186 0 305 -149q60 68 146.5 108.5t164.5 40.5q184 0 294 -103.5t110 -293.5v-565q0 -73 -41.5 -118.5t-106.5 -45.5t-106 45.5t-41 118.5v514q0 90 -46.5 146t-125.5 56q-81 0 -127.5 -55.5 t-46.5 -146.5v-514q0 -73 -41.5 -118.5t-106.5 -45.5t-106 45.5t-41 118.5v514q0 90 -46.5 146t-125.5 56q-87 0 -130.5 -54.5t-43.5 -147.5v-514q0 -73 -41.5 -118.5t-106.5 -45.5t-106 45.5t-41 118.5z" />
<glyph unicode="n" horiz-adv-x="1138" d="M84 152v786q0 73 41 118.5t106 45.5q57 0 92.5 -29t43.5 -80q86 121 284 121q178 0 291 -107t113 -290v-565q0 -73 -41.5 -118.5t-106.5 -45.5t-106 45.5t-41 118.5v514q0 98 -54.5 150t-138.5 52q-88 0 -138 -56.5t-50 -145.5v-514q0 -73 -41.5 -118.5t-106.5 -45.5 t-106 45.5t-41 118.5z" />
<glyph unicode="o" horiz-adv-x="1138" d="M41 543q0 111 39.5 215t107.5 182.5t167.5 126t213.5 47.5q151 0 273.5 -80.5t189 -210.5t66.5 -280q0 -115 -38.5 -218.5t-106.5 -181t-168 -123t-216 -45.5q-154 0 -276 78t-187 207t-65 283zM336 543q0 -74 24 -139.5t78.5 -111.5t130.5 -46t131 46t79 111.5t24 139.5 q0 75 -23.5 141t-78.5 113t-132 47t-131.5 -47t-78 -113t-23.5 -141z" />
<glyph unicode="p" d="M84 -283v1221q0 73 41 118.5t106 45.5q120 0 148 -123q40 65 116.5 100t163.5 35q114 0 207 -50.5t150.5 -134.5t88 -186.5t30.5 -212.5q0 -105 -35 -204.5t-96.5 -177.5t-154 -125.5t-200.5 -47.5q-152 0 -270 103v-361q0 -73 -41.5 -118t-106.5 -45t-106 45t-41 118z M379 553q0 -76 23 -143.5t77 -115.5t131 -48q73 0 127 46.5t78.5 112.5t24.5 138q0 73 -24.5 140t-78.5 114t-127 47q-57 0 -102.5 -25t-72.5 -67t-41.5 -93t-14.5 -106z" />
<glyph unicode="q" d="M41 530q0 110 30.5 212.5t87.5 186.5t150 134.5t207 50.5q87 0 164 -35t117 -100q28 123 147 123q65 0 106.5 -45.5t41.5 -118.5v-1221q0 -73 -41.5 -118t-106.5 -45t-106 45t-41 118v361q-57 -50 -128.5 -76.5t-142.5 -26.5q-108 0 -200.5 47.5t-154 125.5t-96 177.5 t-34.5 204.5zM336 543q0 -72 24 -138t78 -112.5t127 -46.5q58 0 104 27.5t73 72.5t41 98t14 109q0 75 -24 139t-78.5 108t-129.5 44q-73 0 -127 -47t-78 -114t-24 -140z" />
<glyph unicode="r" horiz-adv-x="681" d="M80 152v802q0 69 45.5 108.5t105.5 39.5q144 0 144 -123h4q42 63 91 93t116 30q59 0 101 -41.5t42 -116.5q0 -28 -9 -47.5t-28.5 -33t-37.5 -21.5t-50 -20t-51 -21q-38 -18 -53.5 -25.5t-45.5 -27t-43 -37t-24.5 -45.5t-11.5 -62v-452q0 -73 -41.5 -118.5t-106.5 -45.5 t-106 45.5t-41 118.5z" />
<glyph unicode="s" horiz-adv-x="872" d="M20 203q0 41 35.5 86t91.5 45q38 0 77 -16t67 -34.5t71.5 -34.5t90.5 -16q65 0 90.5 20.5t25.5 63.5q0 27 -28 49.5t-73.5 40.5t-100 38t-109 47.5t-100 63t-73.5 90.5t-28 124q0 153 112 248.5t288 95.5q57 0 119 -13.5t119 -38.5t93.5 -67t36.5 -94t-34.5 -91.5 t-85.5 -39.5q-22 0 -68.5 21.5t-101 43t-95.5 21.5q-43 0 -71.5 -21t-28.5 -61q0 -27 28 -50t73.5 -41t100 -38t109 -47.5t100 -62.5t73.5 -90t28 -123q0 -150 -116 -248.5t-304 -98.5q-86 0 -180 28.5t-163 82.5t-69 117z" />
<glyph unicode="t" horiz-adv-x="606" d="M-39 961q0 55 36.5 92t92.5 37h66v176q0 73 41 118.5t106 45.5t106.5 -45.5t41.5 -118.5v-176h84q62 0 101.5 -31.5t39.5 -97.5q0 -65 -39.5 -97.5t-101.5 -32.5h-84v-679q0 -73 -41.5 -118.5t-106.5 -45.5t-106 45.5t-41 118.5v679h-66q-60 0 -94.5 35t-34.5 95z" />
<glyph unicode="u" horiz-adv-x="1138" d="M84 406v532q0 73 41 118.5t106 45.5t106.5 -45.5t41.5 -118.5v-526q0 -88 56 -139.5t134 -51.5t134.5 51.5t56.5 139.5v526q0 73 41 118.5t106 45.5t106.5 -45.5t41.5 -118.5v-532q0 -199 -128 -315t-358 -116t-357.5 116t-127.5 315z" />
<glyph unicode="v" horiz-adv-x="946" d="M-2 958q0 67 45 105.5t109 38.5q98 0 131 -105l188 -581h4l189 581q33 105 131 105q64 0 108.5 -38.5t44.5 -105.5q0 -38 -18 -86l-297 -761q-25 -64 -57.5 -93.5t-102.5 -29.5t-102.5 29.5t-57.5 93.5l-297 761q-18 48 -18 86z" />
<glyph unicode="w" horiz-adv-x="1593" d="M14 983q0 50 42 84.5t106 34.5q53 0 90 -32t49 -85l170 -563h4l172 551q18 64 53 96.5t97 32.5q61 0 96 -32.5t53 -96.5l172 -551h4l170 563q12 53 49.5 85t90.5 32q66 0 106.5 -39t40.5 -105q0 -12 -3 -25.5t-6 -24t-9.5 -29.5t-10.5 -31l-252 -711q-54 -149 -178 -149 q-127 0 -170 137l-151 475h-4l-152 -475q-43 -137 -170 -137q-124 0 -178 149l-250 707q-31 91 -31 139z" />
<glyph unicode="x" horiz-adv-x="1024" d="M0 131q0 55 41 100l299 340l-250 281q-45 52 -45 106q0 57 47 100.5t105 43.5q59 0 108 -58l207 -258l207 258q49 58 108 58q58 0 105 -43.5t47 -100.5q0 -54 -45 -106l-250 -281l299 -340q41 -45 41 -100q0 -64 -40 -103.5t-105 -39.5q-45 0 -70 15.5t-53 49.5l-244 299 l-244 -299q-28 -34 -53 -49.5t-70 -15.5q-65 0 -105 39.5t-40 103.5z" />
<glyph unicode="y" horiz-adv-x="985" d="M-4 975q0 53 45 90t94 37q108 0 148 -105l202 -555l217 555q40 105 148 105q49 0 94 -37t45 -90q0 -44 -14 -76l-494 -1229q-48 -116 -139 -116q-71 0 -112.5 38t-41.5 89q0 35 19 86l129 319l-326 813q-14 40 -14 76z" />
<glyph unicode="z" horiz-adv-x="985" d="M23 100q0 38 26 80l463 651h-342q-57 0 -95 35t-38 95t38 94.5t95 34.5h670q18 0 37.5 -5.5t39 -28.5t19.5 -59q0 -28 -6.5 -46t-24.5 -42l-465 -651h389q58 0 96 -34.5t38 -94.5t-38 -94.5t-96 -34.5h-686q-52 0 -86 25.5t-34 74.5z" />
<glyph unicode="{" horiz-adv-x="681" d="M-20 584q0 40 25 69t73 29q47 0 72.5 26t25.5 109v397q0 269 273 269h126q41 0 67 -24t26 -68t-26 -68.5t-67 -24.5h-51q-90 0 -90 -118v-387q0 -53 -17 -92t-39 -59.5t-57 -33.5t-56 -16t-52 -6v-4q31 -3 52 -6t56 -16t57 -33.5t39 -59.5t17 -92v-387q0 -119 90 -119h51 q41 0 67 -24t26 -68t-26 -68t-67 -24h-126q-136 0 -204.5 65.5t-68.5 202.5v397q0 83 -25.5 109t-72.5 26q-48 0 -73 29t-25 70z" />
<glyph unicode="|" horiz-adv-x="454" d="M104 -512v2048q0 56 33 89.5t90 33.5t90 -33.5t33 -89.5v-2048q0 -56 -33 -89.5t-90 -33.5t-90 33.5t-33 89.5z" />
<glyph unicode="}" horiz-adv-x="681" d="M14 -223q0 44 25.5 68t66.5 24h52q90 0 90 119v387q0 53 17 92t39 59.5t57 33.5t56 16t52 6v4q-31 3 -52 6t-56 16t-57 33.5t-39 59.5t-17 92v387q0 118 -90 118h-52q-41 0 -66.5 24.5t-25.5 68.5t25.5 68t66.5 24h127q273 0 273 -269v-397q0 -83 25.5 -109t72.5 -26 q48 0 73 -29t25 -69q0 -41 -25 -70t-73 -29q-47 0 -72.5 -26t-25.5 -109v-397q0 -137 -68.5 -202.5t-204.5 -65.5h-127q-41 0 -66.5 24t-25.5 68z" />
<glyph unicode="~" horiz-adv-x="1228" d="M84 440q0 103 85.5 187t225.5 84q65 0 151.5 -35t163.5 -70t119 -35q38 0 71 19.5t53 43t48 43t56 19.5q46 0 67 -29t21 -71q0 -103 -85.5 -186.5t-225.5 -83.5q-65 0 -151.5 35t-164 69.5t-119.5 34.5q-31 0 -58 -13t-46.5 -31.5t-37.5 -36.5t-39.5 -31t-45.5 -13 q-46 0 -67 29t-21 71z" />
<glyph unicode="&#xa1;" horiz-adv-x="684" d="M182 954q0 66 47 113t113 47t113 -47t47 -113t-47 -112.5t-113 -46.5t-113 46.5t-47 112.5zM195 -254v789q0 63 41.5 101t105.5 38q63 0 105 -38.5t42 -100.5v-789q0 -62 -42 -100.5t-105 -38.5q-64 0 -105.5 38t-41.5 101z" />
<glyph unicode="&#xa2;" horiz-adv-x="948" d="M41 551q0 213 123 369t323 186v57q0 21 0.5 32t3.5 25.5t8.5 21.5t16.5 12.5t27 5.5q20 0 31.5 -6.5t16.5 -22.5t6 -28.5t1 -39.5v-49q47 -1 100.5 -11.5t107.5 -31t89 -58t35 -85.5q0 -54 -32 -100t-81 -46q-35 0 -105 28.5t-114 31.5v-596q41 3 116.5 32t88.5 29 q52 0 89.5 -38t37.5 -91q0 -51 -34 -91t-87 -63t-107 -35t-104 -14v-47q0 -19 -0.5 -28.5t-3 -25t-8 -23t-16.5 -13.5t-27 -6q-26 0 -39 16t-15 32.5t-2 47.5v56q-208 29 -327 185.5t-119 381.5zM336 543q0 -89 40 -165.5t111 -107.5v551q-73 -31 -112 -107.5t-39 -170.5z " />
<glyph unicode="&#xa3;" horiz-adv-x="1251" d="M33 727q0 65 40.5 103t106.5 38h43q-20 38 -36.5 106t-16.5 111q0 118 71 210t188 140t257 48q142 0 260.5 -46t188 -127.5t69.5 -181.5q0 -70 -45 -112.5t-115 -42.5q-38 0 -68 22t-53.5 53.5t-50 63.5t-71 54t-103.5 22q-81 0 -138.5 -42.5t-57.5 -115.5q0 -63 26 -108 l31 -54h311q66 0 107 -38t41 -103t-41 -103t-107 -38h-264q0 -161 -104 -303h569q66 0 107 -38.5t41 -103.5t-41 -103t-107 -38h-803q-75 0 -117 43t-42 117q0 22 18.5 51t44.5 63t52 75.5t44.5 103.5t18.5 133h-107q-66 0 -106.5 38t-40.5 103z" />
<glyph unicode="&#xa4;" horiz-adv-x="1228" d="M53 279q0 7 2 13t6 11.5t7 8.5l8 8l6 6l119 118q-45 51 -70 126t-25 159q0 88 24.5 166.5t70.5 122.5l-119 119q-25 25 -29 47q0 44 25 73q24 33 69 33q39 0 60 -24l117 -117q50 40 129.5 65t160.5 25t161 -25t130 -65l117 117q21 24 59 24q46 0 70 -33q25 -36 25 -73 q0 -7 -2 -13t-6 -11.5t-7 -8.5l-9 -9l-5 -5l-119 -119q46 -44 70 -122.5t24 -166.5q0 -84 -25 -159t-69 -126l119 -118q1 -1 5 -4.5t6.5 -6t6 -7t6 -8.5t4 -10t1.5 -11q0 -38 -25 -74q-24 -33 -70 -33q-37 0 -59 25l-117 120q-49 -44 -126.5 -69t-164.5 -25q-86 0 -163.5 25 t-126.5 69l-117 -120q-22 -25 -60 -25q-45 0 -69 33q-25 36 -25 74zM352 729q0 -117 74.5 -194.5t187.5 -77.5t188 77.5t75 194.5q0 119 -74.5 198t-188.5 79t-188 -79t-74 -198z" />
<glyph unicode="&#xa5;" d="M20 1321q0 62 42 105.5t106 43.5q35 0 71.5 -16.5t55.5 -44.5l293 -428l293 428q19 28 55.5 44.5t71.5 16.5q64 0 105.5 -43.5t41.5 -105.5q0 -49 -29 -92l-260 -361h166q40 0 69 -24.5t29 -61.5t-29 -61.5t-69 -24.5h-291v-139h291q40 0 69 -24.5t29 -61.5t-29 -61.5 t-69 -24.5h-291v-248q0 -63 -37.5 -106t-115.5 -43t-116 43t-38 106v248h-291q-40 0 -69 24.5t-29 61.5t29 61.5t69 24.5h291v139h-291q-40 0 -69 24.5t-29 61.5t29 61.5t69 24.5h166l-260 361q-29 43 -29 92z" />
<glyph unicode="&#xa6;" horiz-adv-x="454" d="M104 -236v472q0 56 33 89t90 33t90 -33t33 -89v-472q0 -56 -33 -89t-90 -33t-90 33t-33 89zM104 788v472q0 56 33 89t90 33t90 -33t33 -89v-472q0 -56 -33 -89t-90 -33t-90 33t-33 89z" />
<glyph unicode="&#xa7;" d="M41 530q0 115 43.5 195.5t138.5 157.5q-51 57 -73.5 103t-22.5 112q0 178 128.5 281.5t317.5 103.5q57 0 120.5 -9t133.5 -32t125 -56t91 -87t36 -119q0 -57 -40.5 -101.5t-96.5 -44.5q-34 0 -66 18.5t-59.5 44.5t-56 52t-67.5 44.5t-83 18.5q-61 0 -106 -40t-45 -101 q0 -40 31.5 -70.5t72 -46.5t114 -43.5t122.5 -52.5q75 -31 126 -58.5t103.5 -69t79.5 -97t27 -123.5q0 -86 -26.5 -152.5t-71 -114t-119.5 -98.5q45 -60 66.5 -107t21.5 -108q0 -116 -62 -203t-159 -130t-212 -43q-120 0 -237.5 43t-193.5 115.5t-76 150.5q0 66 48 109.5 t115 43.5q30 0 58 -20t51.5 -48t49.5 -56t64.5 -48t84.5 -20q55 0 102 32t47 85q0 24 -8.5 45t-28 39t-38.5 31t-53.5 28.5t-58 25t-67 25.5t-67.5 25q-70 27 -120.5 55t-100.5 71t-76.5 104.5t-26.5 139.5zM348 565q0 -49 26 -80.5t79 -56.5l258 -109q50 30 77 64.5 t27 85.5q0 97 -151 154l-226 88q-90 -68 -90 -146z" />
<glyph unicode="&#xa8;" horiz-adv-x="454" d="M-145 1382q0 62 43 105t104 43q62 0 105 -43t43 -105q0 -61 -43 -104t-105 -43t-104.5 42.5t-42.5 104.5zM305 1382q0 62 43.5 105t104.5 43t104 -43t43 -105t-43 -104.5t-104 -42.5q-62 0 -105 43t-43 104z" />
<glyph unicode="&#xa9;" horiz-adv-x="1638" d="M66 729q0 153 59.5 292.5t160.5 240.5t240.5 161t292.5 60t292.5 -60t240.5 -161t161 -240.5t60 -292.5t-60 -292.5t-161 -240.5t-240.5 -161t-292.5 -60t-292.5 60t-240.5 161t-160.5 240.5t-59.5 292.5zM250 729q0 -155 76 -286t207 -207t286 -76q116 0 221.5 45 t182 121t121.5 181.5t45 221.5t-45 221.5t-121.5 181.5t-182 121t-221.5 45q-155 0 -286 -76t-207 -207t-76 -286zM418 729q0 184 111 303t296 119q76 0 145 -25.5t113.5 -63t70.5 -79t26 -76.5q0 -57 -16 -79t-66 -31q-16 0 -28.5 2t-23 8.5t-16.5 10.5t-14 16t-10 15.5 t-9.5 20t-9.5 19.5q-14 22 -26.5 36t-48.5 28t-87 14q-91 0 -138.5 -63.5t-47.5 -174.5t47.5 -174t138.5 -63q51 0 87 14t49 27.5t26 35.5q2 4 9 19.5t10 20t10.5 16.5t13.5 16t16.5 10.5t23 8.5t28.5 2q50 -9 66 -31.5t16 -79.5q0 -35 -26 -76.5t-70.5 -79t-113.5 -63 t-145 -25.5q-185 0 -296 119t-111 303z" />
<glyph unicode="&#xaa;" horiz-adv-x="763" d="M27 1141q0 145 92 243.5t225 98.5q119 0 182 -80q7 80 92 80q53 0 72 -30.5t19 -80.5v-481q0 -90 -91 -90q-85 0 -92 80q-76 -80 -168 -80q-146 0 -238.5 95.5t-92.5 244.5zM223 1141q0 -72 38.5 -126t109.5 -54q70 0 105.5 53.5t35.5 126.5t-35.5 127.5t-105.5 54.5 q-71 0 -109.5 -55t-38.5 -127z" />
<glyph unicode="&#xab;" horiz-adv-x="1024" d="M76 584q0 43 49 114l199 281q30 35 88 35q53 0 85.5 -33.5t32.5 -79.5q0 -47 -22 -78l-162 -248l162 -243q22 -33 22 -70q0 -55 -34 -92t-88 -37q-67 0 -103 51l-211 326q-18 26 -18 74zM494 584q0 43 49 114l198 281q30 35 88 35q53 0 86 -33.5t33 -79.5q0 -47 -22 -78 l-162 -248l162 -243q22 -33 22 -70q0 -55 -34 -92t-89 -37q-66 0 -102 51l-211 326q-18 26 -18 74z" />
<glyph unicode="&#xac;" horiz-adv-x="1228" d="M72 748q0 56 33 89t90 33h839q57 0 90 -33t33 -89v-465q0 -56 -33 -89.5t-90 -33.5t-90 33.5t-33 89.5v342h-716q-57 0 -90 33.5t-33 89.5z" />
<glyph unicode="&#xad;" horiz-adv-x="796" d="M63 592q0 56 30.5 91.5t86.5 39.5h436q56 -4 86.5 -39.5t30.5 -91.5q0 -54 -30.5 -88.5t-86.5 -38.5h-436q-56 4 -86.5 38.5t-30.5 88.5z" />
<glyph unicode="&#xae;" horiz-adv-x="1638" d="M66 729q0 153 59.5 292.5t160.5 240.5t240.5 161t292.5 60t292.5 -60t240.5 -161t161 -240.5t60 -292.5t-60 -292.5t-161 -240.5t-240.5 -161t-292.5 -60t-292.5 60t-240.5 161t-160.5 240.5t-59.5 292.5zM250 729q0 -155 76 -286t207 -207t286 -76q116 0 221.5 45 t182 121t121.5 181.5t45 221.5t-45 221.5t-121.5 181.5t-182 121t-221.5 45q-155 0 -286 -76t-207 -207t-76 -286zM516 406v632q0 40 20 63t74 23h232q67 0 118.5 -11t95.5 -37t67.5 -74t23.5 -117q0 -108 -53 -164.5t-152 -61.5l145 -237q13 -26 13 -43q0 -72 -96 -72 q-12 0 -23 2.5t-18.5 5.5t-16.5 11t-13 12t-12 16t-10 15.5t-10 18.5t-10 18l-129 241h-62v-241q0 -99 -92 -99q-52 0 -72 23.5t-20 75.5zM700 795h154q56 0 82.5 19t26.5 71t-27 72t-82 20h-154v-182z" />
<glyph unicode="&#xaf;" horiz-adv-x="454" d="M-96 1372q0 58 37 90.5t96 32.5h381q59 0 96 -32.5t37 -90.5q0 -59 -36.5 -91t-96.5 -32h-381q-60 0 -96.5 32t-36.5 91z" />
<glyph unicode="&#xb0;" horiz-adv-x="819" d="M80 1153q0 137 97 233.5t233 96.5t232.5 -96.5t96.5 -233.5t-96.5 -233.5t-232.5 -96.5t-233 96.5t-97 233.5zM240 1153q0 -69 50.5 -119.5t119.5 -50.5t119.5 50.5t50.5 119.5t-50.5 119.5t-119.5 50.5t-119.5 -50.5t-50.5 -119.5z" />
<glyph unicode="&#xb1;" horiz-adv-x="1228" d="M72 123q0 56 33 89.5t90 33.5h839q57 0 90 -33.5t33 -89.5t-33 -89.5t-90 -33.5h-839q-57 0 -90 33.5t-33 89.5zM72 684q0 56 33 89.5t90 33.5h297v131q0 56 32.5 89.5t89.5 33.5t90 -33.5t33 -89.5v-131h297q57 0 90 -33.5t33 -89.5t-33 -89.5t-90 -33.5h-297v-131 q0 -56 -33 -89.5t-90 -33.5t-89.5 33.5t-32.5 89.5v131h-297q-57 0 -90 33.5t-33 89.5z" />
<glyph unicode="&#xb2;" horiz-adv-x="763" d="M59 676q0 30 31 61q35 39 107 113.5t126 135.5t97 120q47 62 47 113q0 37 -26.5 58t-67.5 21q-44 0 -69 -19t-35 -46t-19 -54t-29.5 -46t-56.5 -19q-47 0 -71.5 30t-24.5 85q0 35 21.5 78t59 82.5t99.5 66.5t133 27q126 0 210.5 -70t84.5 -184q0 -62 -35 -131t-76 -116 t-92.5 -102t-66.5 -75h208q44 0 67.5 -24t23.5 -81t-23.5 -80.5t-67.5 -23.5h-458q-41 0 -69 20.5t-28 59.5z" />
<glyph unicode="&#xb3;" horiz-adv-x="763" d="M53 811q0 34 33 58t70 24q24 0 42 -13t31.5 -31.5t29 -36.5t44.5 -31t70 -13q54 0 91.5 27t37.5 67q0 53 -31 75.5t-82 29.5q-2 0 -16.5 2.5t-17.5 3.5t-15.5 3.5t-16 4.5t-13 6t-12.5 7.5t-9.5 10t-8.5 13t-4 15.5t-2 20q0 24 7 39.5t23.5 24.5t28.5 13t36 9 q23 6 35 10.5t28.5 14t23.5 26.5t7 41q0 30 -23 48.5t-67 18.5q-29 0 -52.5 -10.5t-39.5 -26t-31 -31t-36 -26t-46 -10.5q-39 0 -62.5 27t-23.5 63q0 56 50.5 103.5t117 71.5t123.5 24q73 0 137.5 -26t106.5 -78t42 -119q0 -122 -112 -189q74 -32 119 -90.5t45 -130.5 q0 -66 -29.5 -118.5t-79 -84t-108 -47.5t-121.5 -16q-69 0 -141.5 26.5t-125.5 80.5t-53 120z" />
<glyph unicode="&#xb4;" horiz-adv-x="454" d="M-25 1374q0 23 16 46t42 36l16 8l242 99q52 20 78 20q44 0 77 -41.5t33 -85.5q0 -92 -84 -121l-229 -90q-15 -5 -27.5 -9.5t-15.5 -6t-9.5 -3t-11 -1.5h-18.5q-44 0 -76.5 46.5t-32.5 102.5z" />
<glyph unicode="&#xb5;" horiz-adv-x="1138" d="M84 -283v1221q0 73 41 118.5t106 45.5t106.5 -45.5t41.5 -118.5v-526q0 -88 56 -139.5t134 -51.5t134.5 51.5t56.5 139.5v526q0 73 41 118.5t106 45.5t106.5 -45.5t41.5 -118.5v-786q0 -73 -41.5 -118.5t-106.5 -45.5t-106 38.5t-41 102.5h-4q-30 -77 -83.5 -115.5 t-105.5 -38.5q-47 0 -101 30t-83 73h-4v-361q0 -73 -41.5 -118t-106.5 -45t-106 45t-41 118z" />
<glyph unicode="&#xb6;" horiz-adv-x="1269" d="M31 1094q0 107 37.5 180.5t109 112.5t157 55t200.5 16h520q57 0 90 -33.5t33 -89.5v-1646q0 -56 -33 -89.5t-90 -33.5t-90 33.5t-33 89.5v1585h-199v-1585q0 -56 -33 -89.5t-90 -33.5t-90 33.5t-33 89.5v1054q-220 0 -338 92.5t-118 258.5z" />
<glyph unicode="&#xb7;" horiz-adv-x="548" d="M115 575q0 66 46.5 113t112.5 47t113 -47.5t47 -112.5q0 -67 -47 -113t-113 -46t-112.5 46.5t-46.5 112.5z" />
<glyph unicode="&#xb8;" horiz-adv-x="454" d="M90 -344q0 23 13.5 38t35.5 15q9 0 44 -9.5t55 -10.5q67 -4 67 57q0 26 -11 39t-23.5 15.5t-34.5 2.5q-3 0 -16.5 1.5t-17.5 2t-13.5 3.5t-12.5 7.5t-6.5 13t-3.5 19.5q0 22 45 82l49 68h123l-80 -104q7 0 22.5 3t22.5 3q66 0 110 -42t44 -114q0 -63 -37 -108t-87 -64.5 t-104 -19.5q-28 0 -54.5 3.5t-58.5 13.5t-51.5 31.5t-19.5 53.5z" />
<glyph unicode="&#xb9;" horiz-adv-x="491" d="M20 1368q0 46 25 74t66 28h190q42 0 65 -24t23 -62v-710q0 -38 -28 -64t-76 -26q-46 0 -75.5 24.5t-29.5 65.5v588h-69q-46 0 -68.5 28.5t-22.5 77.5z" />
<glyph unicode="&#xba;" horiz-adv-x="739" d="M27 1141q0 139 97.5 240.5t246.5 101.5q148 0 245 -101.5t97 -240.5q0 -142 -96 -241t-246 -99q-152 0 -248 99t-96 241zM223 1141q0 -70 39 -125t109 -55q67 0 106 55t39 125q0 72 -36.5 127t-108.5 55q-71 0 -109.5 -55.5t-38.5 -126.5z" />
<glyph unicode="&#xbb;" horiz-adv-x="1024" d="M76 246q0 47 22 78l162 251l-162 240q-22 33 -22 70q0 55 34 92t89 37q66 0 102 -51l211 -326q18 -26 18 -74q0 -43 -49 -114l-198 -281q-30 -35 -88 -35q-53 0 -86 33.5t-33 79.5zM494 246q0 47 22 78l162 251l-162 240q-22 33 -22 70q0 55 34 92t88 37q67 0 103 -51 l211 -326q18 -26 18 -74q0 -43 -49 -114l-199 -281q-30 -35 -88 -35q-53 0 -85.5 33.5t-32.5 79.5z" />
<glyph unicode="&#xbc;" horiz-adv-x="1763" d="M74 1368q0 46 24.5 74t65.5 28h190q42 0 65 -24t23 -62v-710q0 -38 -28 -64t-76 -26q-46 0 -75.5 24.5t-29.5 65.5v588h-69q-90 0 -90 106zM311 76q0 34 21 76l678 1278q20 38 39.5 51.5t54.5 13.5q48 0 84.5 -34t36.5 -81q0 -28 -17 -61l-688 -1288q-3 -4 -10.5 -15 t-10 -14t-9 -11t-10 -10.5t-10 -7t-12 -6t-13.5 -3t-17 -1.5q-41 0 -79 34.5t-38 78.5zM954 254q0 28 19 61l297 500q24 38 56 55t89 17q69 0 115.5 -40t46.5 -118v-362h20q41 0 67 -25t26 -72q0 -49 -26 -74.5t-67 -25.5h-20v-92q0 -90 -104 -90q-105 0 -105 90v92h-334 q-41 0 -60.5 25t-19.5 59zM1192 367h176v313h-4z" />
<glyph unicode="&#xbd;" horiz-adv-x="1763" d="M74 1368q0 46 24.5 74t65.5 28h190q42 0 65 -24t23 -62v-710q0 -38 -28 -64t-76 -26q-46 0 -75.5 24.5t-29.5 65.5v588h-69q-90 0 -90 106zM311 76q0 34 21 76l678 1278q20 38 39.5 51.5t54.5 13.5q48 0 84.5 -34t36.5 -81q0 -28 -17 -61l-688 -1288q-3 -4 -10.5 -15 t-10 -14t-9 -11t-10 -10.5t-10 -7t-12 -6t-13.5 -3t-17 -1.5q-41 0 -79 34.5t-38 78.5zM1044 82q0 30 31 61q35 39 107 113.5t126 135.5t97 120q47 62 47 113q0 37 -26.5 57t-67.5 20q-44 0 -69 -18.5t-35 -45.5t-19 -54t-29.5 -45.5t-56.5 -18.5q-47 0 -71.5 30t-24.5 85 q0 35 21.5 77.5t59 82t99.5 66t133 26.5q126 0 210.5 -69t84.5 -183q0 -62 -35 -131t-76 -116.5t-92.5 -102.5t-66.5 -76h202q37 0 67 -32.5t30 -76.5q0 -100 -84 -100h-465q-41 0 -69 21t-28 61z" />
<glyph unicode="&#xbe;" horiz-adv-x="1763" d="M47 811q0 34 33 58t70 24q24 0 42 -13t31.5 -31.5t29 -36.5t44.5 -31t70 -13q54 0 91.5 27t37.5 67q0 53 -31 75.5t-82 29.5q-2 0 -16.5 2.5t-17.5 3.5t-15.5 3.5t-16 4.5t-13 6t-12.5 7.5t-9.5 10t-8.5 13t-4 15.5t-2 20q0 24 7 39.5t23.5 24.5t28.5 13t35 9 q19 5 28.5 8t24.5 10t22.5 15.5t13.5 23.5t6 35q0 30 -23 48.5t-67 18.5q-29 0 -52.5 -10.5t-39.5 -26t-31 -31t-36 -26t-46 -10.5q-39 0 -62.5 27t-23.5 63q0 56 50.5 103.5t117 71.5t123.5 24q73 0 137.5 -26t106.5 -78t42 -119q0 -122 -112 -189q74 -32 119 -90.5 t45 -130.5q0 -66 -29.5 -118.5t-79 -84t-108 -47.5t-121.5 -16q-69 0 -141.5 26.5t-125.5 80.5t-53 120zM467 76q0 36 20 76l678 1278q20 38 40 51.5t55 13.5q48 0 84 -34t36 -81q0 -30 -16 -61l-688 -1288q-3 -4 -10.5 -15t-10 -14t-9 -11t-10 -10.5t-10 -7t-12 -6 t-13.5 -3t-17 -1.5q-41 0 -79 34.5t-38 78.5zM981 254q0 30 18 61l297 500q24 38 56.5 55t89.5 17q69 0 115.5 -40t46.5 -118v-362h20q40 0 66 -25t26 -72q0 -49 -26 -74.5t-66 -25.5h-20v-92q0 -90 -105 -90q-104 0 -104 90v92h-334q-41 0 -60.5 25t-19.5 59zM1219 367h176 v313h-4z" />
<glyph unicode="&#xbf;" horiz-adv-x="985" d="M35 45q0 164 94.5 268.5t259.5 145.5v73q0 62 42 102t106 40q68 0 107.5 -39.5t39.5 -102.5v-204q0 -15 -4 -27.5t-15 -22.5t-19 -16.5t-28.5 -13.5t-29 -10t-36 -10t-34.5 -9q-37 -10 -61.5 -20.5t-50.5 -30t-39 -50t-13 -73.5q0 -66 51.5 -111t118.5 -45q48 0 87 21 t66.5 50.5t52.5 59.5t56.5 51t67.5 21q56 0 90.5 -40t34.5 -107q0 -77 -45 -143t-114 -107.5t-147 -64.5t-149 -23q-133 0 -243.5 51.5t-178 152.5t-67.5 234zM377 954q0 66 47 113t113 47t112.5 -47t46.5 -113t-46.5 -112.5t-112.5 -46.5t-113 46.5t-47 112.5z" />
<glyph unicode="&#xc0;" horiz-adv-x="1290" d="M4 131q0 33 14 68l412 1114q28 74 86 122t133 48q79 0 135 -46.5t84 -123.5l402 -1114q16 -44 16 -76q0 -59 -41.5 -97t-99.5 -38q-115 0 -150 106l-61 193h-569l-62 -191q-34 -108 -147 -108q-62 0 -107 41t-45 102zM393 1788q0 44 33.5 85.5t77.5 41.5q24 0 78 -21 l241 -98l17 -8q26 -13 41.5 -36t15.5 -46q0 -56 -32.5 -103t-76.5 -47q-16 0 -22.5 0.5t-10.5 2t-17 7t-31 11.5l-230 90q-84 29 -84 121zM453 569h389l-191 594h-4z" />
<glyph unicode="&#xc1;" horiz-adv-x="1290" d="M4 131q0 33 14 68l412 1114q28 74 86 122t133 48q79 0 135 -46.5t84 -123.5l402 -1114q16 -44 16 -76q0 -59 -41.5 -97t-99.5 -38q-115 0 -150 106l-61 193h-569l-62 -191q-34 -108 -147 -108q-62 0 -107 41t-45 102zM393 1706q0 23 16 46t42 36l16 8l242 98q54 21 77 21 q44 0 77.5 -41.5t33.5 -85.5q0 -92 -84 -121l-229 -90q-15 -5 -27 -9.5t-15.5 -6.5t-9.5 -3.5t-11.5 -1.5h-18.5q-44 0 -76.5 47t-32.5 103zM453 569h389l-191 594h-4z" />
<glyph unicode="&#xc2;" horiz-adv-x="1290" d="M4 131q0 33 14 68l412 1114q28 74 86 122t133 48q79 0 135 -46.5t84 -123.5l402 -1114q16 -44 16 -76q0 -59 -41.5 -97t-99.5 -38q-115 0 -150 106l-61 193h-569l-62 -191q-34 -108 -147 -108q-62 0 -107 41t-45 102zM334 1683q0 88 94 125l217 88l217 -88 q47 -20 70.5 -49t23.5 -76q0 -50 -38 -90.5t-87 -40.5q-9 0 -23 4t-24 8t-30.5 13t-28.5 12l-80 35l-80 -35q-8 -3 -28.5 -12t-30.5 -13t-24 -8t-23 -4q-49 0 -87 40.5t-38 90.5zM453 569h389l-191 594h-4z" />
<glyph unicode="&#xc3;" horiz-adv-x="1290" d="M4 131q0 33 14 68l412 1114q28 74 86 122t133 48q79 0 135 -46.5t84 -123.5l402 -1114q16 -44 16 -76q0 -59 -41.5 -97t-99.5 -38q-115 0 -150 106l-61 193h-569l-62 -191q-34 -108 -147 -108q-62 0 -107 41t-45 102zM305 1677q0 82 56.5 131.5t138.5 49.5q50 0 131 -25 q79 -27 98 -27t75 30t85 30q45 0 70.5 -34.5t25.5 -80.5q0 -74 -63 -126t-138 -52q-37 0 -123.5 25.5t-107.5 25.5q-23 0 -65.5 -26.5t-79.5 -26.5q-38 0 -70.5 34t-32.5 72zM453 569h389l-191 594h-4z" />
<glyph unicode="&#xc4;" horiz-adv-x="1290" d="M4 131q0 33 14 68l412 1114q28 74 86 122t133 48q79 0 135 -46.5t84 -123.5l402 -1114q16 -44 16 -76q0 -59 -41.5 -97t-99.5 -38q-115 0 -150 106l-61 193h-569l-62 -191q-34 -108 -147 -108q-62 0 -107 41t-45 102zM272 1714q0 62 43 105t105 43q61 0 104 -43t43 -105 t-42.5 -104.5t-104.5 -42.5t-105 43t-43 104zM453 569h389l-191 594h-4zM723 1714q0 62 43 105t104 43q62 0 105 -43t43 -105q0 -61 -43 -104t-105 -43t-104.5 42.5t-42.5 104.5z" />
<glyph unicode="&#xc5;" horiz-adv-x="1290" d="M4 131q0 33 14 68l412 1114q28 74 86 122t133 48q79 0 135 -46.5t84 -123.5l402 -1114q16 -44 16 -76q0 -59 -41.5 -97t-99.5 -38q-115 0 -150 106l-61 193h-569l-62 -191q-34 -108 -147 -108q-62 0 -107 41t-45 102zM442 1720q0 85 59 144t144 59t144 -59t59 -144 t-59 -143.5t-144 -58.5t-144 58.5t-59 143.5zM453 569h389l-191 594h-4zM553 1720q0 -38 27 -65t65 -27t65 27t27 65t-27 65t-65 27t-65 -27t-27 -65z" />
<glyph unicode="&#xc6;" horiz-adv-x="1705" d="M-8 117q0 22 4 39t8 27t16 32l635 1174q10 20 22 32.5t44 24.5t78 12h719q69 0 107 -41.5t38 -99.5q0 -57 -38.5 -99t-106.5 -42h-361v-299h336q71 0 110 -42t39 -100q0 -57 -39.5 -99t-109.5 -42h-336v-311h379q69 0 107 -41.5t38 -100.5q0 -57 -38.5 -99t-106.5 -42 h-528q-68 0 -113 43t-45 111v102h-469l-96 -168q-58 -100 -146 -100q-61 0 -104 35.5t-43 93.5zM522 532h328v594h-4z" />
<glyph unicode="&#xc7;" horiz-adv-x="1251" d="M35 729q0 212 88 383.5t249.5 271t366.5 99.5q64 0 133.5 -11.5t142 -35.5t119 -72t46.5 -111q0 -57 -35.5 -97t-91.5 -40q-33 0 -76 18t-103.5 36t-134.5 18q-93 0 -167 -37.5t-121 -101.5t-72 -147.5t-25 -178.5q0 -93 25 -174t72.5 -143.5t121.5 -99t166 -36.5 q74 0 137.5 21.5t109.5 43t79 21.5q62 0 98.5 -47.5t36.5 -91.5q0 -66 -45 -115.5t-116.5 -75t-140 -37t-134.5 -12.5l-62 -81q7 0 23 3t23 3q66 0 109.5 -42t43.5 -114q0 -63 -37 -108t-86.5 -64.5t-103.5 -19.5q-28 0 -55 3.5t-59 13.5t-51.5 31.5t-19.5 53.5q0 23 14 38 t36 15q9 0 43.5 -9.5t54.5 -10.5q68 -4 68 57q0 20 -5.5 32t-17 17t-21 6.5t-26.5 1.5q-3 0 -16.5 1.5t-17.5 2t-13.5 3.5t-12.5 7.5t-6.5 13t-3.5 19.5q0 22 45 82l35 50q-272 34 -441 243t-169 504z" />
<glyph unicode="&#xc8;" horiz-adv-x="948" d="M92 154v1126q0 80 40.5 129t119.5 49h508q69 0 107 -41.5t38 -99.5q0 -57 -38.5 -99t-106.5 -42h-361v-299h336q71 0 110.5 -42t39.5 -100q0 -57 -40 -99t-110 -42h-336v-311h379q69 0 107.5 -42t38.5 -100q0 -57 -39 -99t-107 -42h-528q-68 0 -113 43t-45 111zM223 1788 q0 44 33.5 85.5t77.5 41.5q24 0 78 -21l241 -98l17 -8q26 -13 41.5 -36t15.5 -46q0 -56 -32.5 -103t-76.5 -47q-16 0 -22.5 0.5t-10.5 2t-17 7t-31 11.5l-230 90q-84 29 -84 121z" />
<glyph unicode="&#xc9;" horiz-adv-x="948" d="M92 154v1126q0 80 40.5 129t119.5 49h508q69 0 107 -41.5t38 -99.5q0 -57 -38.5 -99t-106.5 -42h-361v-299h336q71 0 110.5 -42t39.5 -100q0 -57 -40 -99t-110 -42h-336v-311h379q69 0 107.5 -42t38.5 -100q0 -57 -39 -99t-107 -42h-528q-68 0 -113 43t-45 111zM223 1706 q0 23 16 46t42 36l16 8l242 98q54 21 77 21q44 0 77.5 -41.5t33.5 -85.5q0 -92 -84 -121l-229 -90q-15 -5 -27 -9.5t-15.5 -6.5t-9.5 -3.5t-11.5 -1.5h-18.5q-44 0 -76.5 47t-32.5 103z" />
<glyph unicode="&#xca;" horiz-adv-x="948" d="M92 154v1126q0 80 40.5 129t119.5 49h508q69 0 107 -41.5t38 -99.5q0 -57 -38.5 -99t-106.5 -42h-361v-299h336q71 0 110.5 -42t39.5 -100q0 -57 -40 -99t-110 -42h-336v-311h379q69 0 107.5 -42t38.5 -100q0 -57 -39 -99t-107 -42h-528q-68 0 -113 43t-45 111zM164 1683 q0 88 94 125l217 88l217 -88q47 -20 70.5 -49t23.5 -76q0 -50 -37.5 -90.5t-86.5 -40.5q-7 0 -16.5 2t-21.5 6.5t-21 8.5t-24.5 10.5t-23.5 9.5l-80 35l-80 -35q-8 -3 -28.5 -12t-30.5 -13t-24 -8t-23 -4q-49 0 -87 40.5t-38 90.5z" />
<glyph unicode="&#xcb;" horiz-adv-x="948" d="M92 154v1126q0 80 40.5 129t119.5 49h508q69 0 107 -41.5t38 -99.5q0 -57 -38.5 -99t-106.5 -42h-361v-299h336q71 0 110.5 -42t39.5 -100q0 -57 -40 -99t-110 -42h-336v-311h379q69 0 107.5 -42t38.5 -100q0 -57 -39 -99t-107 -42h-528q-68 0 -113 43t-45 111zM102 1714 q0 62 43 105t105 43q61 0 104 -43t43 -105t-42.5 -104.5t-104.5 -42.5t-105 43t-43 104zM553 1714q0 62 43 105t104 43q62 0 105 -43t43 -105q0 -61 -43 -104t-105 -43t-104.5 42.5t-42.5 104.5z" />
<glyph unicode="&#xcc;" horiz-adv-x="491" d="M-6 1788q0 44 33 85.5t77 41.5q24 0 78 -21l242 -98l16 -8q26 -13 42 -36t16 -46q0 -56 -32.5 -103t-76.5 -47h-18.5t-11.5 1.5t-9.5 3.5t-15.5 6.5t-27 9.5l-229 90q-84 29 -84 121zM92 147v1164q0 75 43 117t111 42t110.5 -42t42.5 -117v-1164q0 -75 -42.5 -117 t-110.5 -42t-111 42t-43 117z" />
<glyph unicode="&#xcd;" horiz-adv-x="491" d="M-6 1706q0 23 15.5 46t41.5 36l17 8l241 98q54 21 78 21q44 0 77.5 -41.5t33.5 -85.5q0 -92 -84 -121l-230 -90q-15 -5 -27 -9.5t-15.5 -6.5t-9.5 -3.5t-11.5 -1.5h-18.5q-44 0 -76 47t-32 103zM92 147v1164q0 75 43 117t111 42t110.5 -42t42.5 -117v-1164 q0 -75 -42.5 -117t-110.5 -42t-111 42t-43 117z" />
<glyph unicode="&#xce;" horiz-adv-x="491" d="M-66 1683q0 88 95 125l217 88l217 -88q47 -20 70.5 -49t23.5 -76q0 -50 -38 -90.5t-87 -40.5q-9 0 -23 4t-24 8t-30.5 13t-28.5 12l-80 35l-80 -35q-8 -3 -23.5 -9.5t-24.5 -10.5t-21 -8.5t-21.5 -6.5t-16.5 -2q-49 0 -87 40.5t-38 90.5zM92 147v1164q0 75 43 117t111 42 t110.5 -42t42.5 -117v-1164q0 -75 -42.5 -117t-110.5 -42t-111 42t-43 117z" />
<glyph unicode="&#xcf;" horiz-adv-x="491" d="M-127 1714q0 62 43 105t104 43q62 0 105 -43t43 -105q0 -61 -43 -104t-105 -43t-104.5 42.5t-42.5 104.5zM92 147v1164q0 75 43 117t111 42t110.5 -42t42.5 -117v-1164q0 -75 -42.5 -117t-110.5 -42t-111 42t-43 117zM324 1714q0 62 43 105t104 43t104 -43t43 -105 t-43 -104.5t-104 -42.5t-104 42.5t-43 104.5z" />
<glyph unicode="&#xd0;" horiz-adv-x="1366" d="M-92 739q0 48 34 82.5t95 34.5h55v444q0 70 44.5 114t113.5 44h340q340 0 530.5 -202t190.5 -547q0 -322 -192 -515.5t-509 -193.5h-356q-62 0 -112 37.5t-50 116.5v469h-55q-61 0 -95 34.5t-34 81.5zM399 283h207q96 0 171 34t121 94t69.5 139t23.5 173q0 100 -24 181.5 t-72 143t-126.5 95t-182.5 33.5h-187v-320h168q61 0 95 -34.5t34 -82.5q0 -47 -34 -81.5t-95 -34.5h-168v-340z" />
<glyph unicode="&#xd1;" horiz-adv-x="1402" d="M80 147v1164q0 75 42.5 117t110.5 42q30 0 69.5 -20t59.5 -47l650 -866h4v774q0 75 42.5 117t110.5 42t111 -42t43 -117v-1164q0 -75 -43 -117t-111 -42q-30 0 -69 20t-60 47l-649 856h-4v-764q0 -75 -43 -117t-111 -42t-110.5 42t-42.5 117zM362 1677q0 82 56.5 131.5 t138.5 49.5q50 0 131 -25q79 -27 98 -27t75 30t85 30q45 0 70.5 -34.5t25.5 -80.5q0 -74 -62.5 -126t-137.5 -52q-37 0 -124 25.5t-108 25.5q-23 0 -65.5 -26.5t-79.5 -26.5q-38 0 -70.5 34t-32.5 72z" />
<glyph unicode="&#xd2;" horiz-adv-x="1478" d="M35 729q0 212 88 383.5t249.5 271t366.5 99.5q202 0 364 -101.5t251.5 -273.5t89.5 -379q0 -158 -51.5 -296.5t-143 -239.5t-224 -159.5t-286.5 -58.5q-204 0 -365.5 100t-250 271.5t-88.5 382.5zM354 729q0 -129 41 -233.5t130 -171t214 -66.5t214 66.5t130 171 t41 233.5q0 94 -24.5 178t-71.5 150t-121.5 104.5t-167.5 38.5t-167.5 -38.5t-121.5 -104.5t-71.5 -150t-24.5 -178zM487 1788q0 44 33.5 85.5t77.5 41.5q24 0 78 -21l242 -98l16 -8q26 -13 41.5 -36t15.5 -46q0 -56 -32 -103t-76 -47h-18.5t-11.5 1.5t-9.5 3.5t-15.5 6.5 t-27 9.5l-230 90q-84 29 -84 121z" />
<glyph unicode="&#xd3;" horiz-adv-x="1478" d="M35 729q0 212 88 383.5t249.5 271t366.5 99.5q202 0 364 -101.5t251.5 -273.5t89.5 -379q0 -158 -51.5 -296.5t-143 -239.5t-224 -159.5t-286.5 -58.5q-204 0 -365.5 100t-250 271.5t-88.5 382.5zM354 729q0 -129 41 -233.5t130 -171t214 -66.5t214 66.5t130 171 t41 233.5q0 94 -24.5 178t-71.5 150t-121.5 104.5t-167.5 38.5t-167.5 -38.5t-121.5 -104.5t-71.5 -150t-24.5 -178zM487 1706q0 23 16 46t42 36l16 8l242 98q54 21 78 21q44 0 77 -41.5t33 -85.5q0 -92 -84 -121l-229 -90q-15 -5 -27 -9.5t-15.5 -6.5t-9.5 -3.5t-11.5 -1.5 h-18.5q-44 0 -76.5 47t-32.5 103z" />
<glyph unicode="&#xd4;" horiz-adv-x="1478" d="M35 729q0 212 88 383.5t249.5 271t366.5 99.5q202 0 364 -101.5t251.5 -273.5t89.5 -379q0 -158 -51.5 -296.5t-143 -239.5t-224 -159.5t-286.5 -58.5q-204 0 -365.5 100t-250 271.5t-88.5 382.5zM354 729q0 -129 41 -233.5t130 -171t214 -66.5t214 66.5t130 171 t41 233.5q0 94 -24.5 178t-71.5 150t-121.5 104.5t-167.5 38.5t-167.5 -38.5t-121.5 -104.5t-71.5 -150t-24.5 -178zM428 1683q0 88 94 125l217 88l217 -88q47 -20 71 -49t24 -76q0 -50 -38 -90.5t-87 -40.5q-7 0 -16.5 2t-21.5 6.5t-21 8.5t-24.5 10.5t-23.5 9.5l-80 35 l-80 -35q-8 -3 -28.5 -12t-30.5 -13t-24 -8t-23 -4q-49 0 -87 40.5t-38 90.5z" />
<glyph unicode="&#xd5;" horiz-adv-x="1478" d="M35 729q0 212 88 383.5t249.5 271t366.5 99.5q202 0 364 -101.5t251.5 -273.5t89.5 -379q0 -158 -51.5 -296.5t-143 -239.5t-224 -159.5t-286.5 -58.5q-204 0 -365.5 100t-250 271.5t-88.5 382.5zM354 729q0 -129 41 -233.5t130 -171t214 -66.5t214 66.5t130 171 t41 233.5q0 94 -24.5 178t-71.5 150t-121.5 104.5t-167.5 38.5t-167.5 -38.5t-121.5 -104.5t-71.5 -150t-24.5 -178zM399 1677q0 82 56.5 131.5t138.5 49.5q50 0 131 -25q79 -27 98 -27t75 30t85 30q45 0 70.5 -34.5t25.5 -80.5q0 -74 -62.5 -126t-137.5 -52 q-37 0 -124 25.5t-108 25.5q-23 0 -65.5 -26.5t-79.5 -26.5q-38 0 -70.5 34t-32.5 72z" />
<glyph unicode="&#xd6;" horiz-adv-x="1478" d="M35 729q0 212 88 383.5t249.5 271t366.5 99.5q202 0 364 -101.5t251.5 -273.5t89.5 -379q0 -158 -51.5 -296.5t-143 -239.5t-224 -159.5t-286.5 -58.5q-204 0 -365.5 100t-250 271.5t-88.5 382.5zM354 729q0 -129 41 -233.5t130 -171t214 -66.5t214 66.5t130 171 t41 233.5q0 94 -24.5 178t-71.5 150t-121.5 104.5t-167.5 38.5t-167.5 -38.5t-121.5 -104.5t-71.5 -150t-24.5 -178zM367 1714q0 62 43 105t104 43q62 0 105 -43t43 -105q0 -61 -43 -104t-105 -43t-104.5 42.5t-42.5 104.5zM817 1714q0 62 43.5 105t104.5 43t104 -43 t43 -105t-43 -104.5t-104 -42.5q-62 0 -105 43t-43 104z" />
<glyph unicode="&#xd7;" horiz-adv-x="1228" d="M154 180q0 45 39 84l253 254l-253 254q-39 39 -39 78q0 56 39 90q39 39 83 39q45 0 84 -39l254 -254l254 254q39 39 84 39t84 -39q39 -34 39 -90q0 -39 -39 -78l-254 -254l254 -254q39 -39 39 -84t-39 -84q-34 -39 -90 -39q-39 0 -78 39l-254 254l-254 -254 q-39 -39 -77 -39q-56 0 -90 39q-39 39 -39 84z" />
<glyph unicode="&#xd8;" horiz-adv-x="1478" d="M0 55q0 31 29 64l143 145q-137 198 -137 465q0 212 88 383.5t249.5 271t366.5 99.5q266 0 443 -156l98 98q18 21 29.5 32.5t36 24.5t49.5 13q31 0 57.5 -21t26.5 -51q0 -40 -21 -67l-155 -160q141 -207 141 -467q0 -158 -51.5 -296.5t-143 -239.5t-224 -159.5 t-286.5 -58.5q-266 0 -446 156l-127 -129q-34 -39 -80 -39q-32 0 -59 28t-27 64zM354 729q0 -135 43 -229l580 614q-92 86 -238 86q-93 0 -167.5 -38.5t-121.5 -104.5t-71.5 -150t-24.5 -178zM500 346q88 -88 239 -88q125 0 214 66.5t130 171t41 233.5q0 139 -45 234z" />
<glyph unicode="&#xd9;" horiz-adv-x="1402" d="M80 580v731q0 75 42.5 117t110.5 42t111 -42t43 -117v-715q0 -145 86 -241.5t229 -96.5q136 0 225 99.5t89 238.5v715q0 75 42.5 117t110.5 42t111 -42t43 -117v-731q0 -168 -84.5 -308t-227 -218.5t-309.5 -78.5q-169 0 -311.5 78t-226.5 217.5t-84 309.5zM451 1788 q0 44 33 85.5t77 41.5q24 0 78 -21l242 -98l16 -8q26 -13 41.5 -36t15.5 -46q0 -56 -32 -103t-76 -47h-18.5t-11.5 1.5t-9.5 3.5t-15.5 6.5t-27 9.5l-229 90q-84 29 -84 121z" />
<glyph unicode="&#xda;" horiz-adv-x="1402" d="M80 580v731q0 75 42.5 117t110.5 42t111 -42t43 -117v-715q0 -145 86 -241.5t229 -96.5q136 0 225 99.5t89 238.5v715q0 75 42.5 117t110.5 42t111 -42t43 -117v-731q0 -168 -84.5 -308t-227 -218.5t-309.5 -78.5q-169 0 -311.5 78t-226.5 217.5t-84 309.5zM451 1706 q0 23 15.5 46t41.5 36l16 8l242 98q54 21 78 21q44 0 77 -41.5t33 -85.5q0 -92 -84 -121l-229 -90q-15 -5 -27 -9.5t-15.5 -6.5t-9.5 -3.5t-11.5 -1.5h-18.5q-44 0 -76 47t-32 103z" />
<glyph unicode="&#xdb;" horiz-adv-x="1402" d="M80 580v731q0 75 42.5 117t110.5 42t111 -42t43 -117v-715q0 -145 86 -241.5t229 -96.5q136 0 225 99.5t89 238.5v715q0 75 42.5 117t110.5 42t111 -42t43 -117v-731q0 -168 -84.5 -308t-227 -218.5t-309.5 -78.5q-169 0 -311.5 78t-226.5 217.5t-84 309.5zM391 1683 q0 88 94 125l217 88l218 -88q47 -20 70.5 -49t23.5 -76q0 -50 -38 -90.5t-87 -40.5q-7 0 -16.5 2t-21.5 6.5t-21 8.5t-24.5 10.5t-23.5 9.5l-80 35l-79 -35q-8 -3 -23.5 -9.5t-24.5 -10.5t-21 -8.5t-21.5 -6.5t-16.5 -2q-49 0 -87 40.5t-38 90.5z" />
<glyph unicode="&#xdc;" horiz-adv-x="1402" d="M80 580v731q0 75 42.5 117t110.5 42t111 -42t43 -117v-715q0 -145 86 -241.5t229 -96.5q136 0 225 99.5t89 238.5v715q0 75 42.5 117t110.5 42t111 -42t43 -117v-731q0 -168 -84.5 -308t-227 -218.5t-309.5 -78.5q-169 0 -311.5 78t-226.5 217.5t-84 309.5zM330 1714 q0 62 43 105t104 43t104.5 -43t43.5 -105q0 -61 -43 -104t-105 -43q-61 0 -104 42.5t-43 104.5zM780 1714q0 62 43 105t105 43q61 0 104 -43t43 -105t-42.5 -104.5t-104.5 -42.5t-105 43t-43 104z" />
<glyph unicode="&#xdd;" horiz-adv-x="1097" d="M-20 1321q0 62 41.5 105.5t105.5 43.5q85 0 127 -61l295 -428l295 428q42 61 127 61q64 0 105.5 -43.5t41.5 -105.5q0 -50 -28 -92l-388 -545v-547q0 -63 -38 -106t-115 -43t-115.5 43t-38.5 106v547l-387 545q-28 42 -28 92zM297 1706q0 23 15.5 46t41.5 36l17 8l241 98 q54 21 78 21q44 0 77.5 -41.5t33.5 -85.5q0 -92 -84 -121l-230 -90q-18 -6 -31 -11.5t-17 -7t-10.5 -2t-22.5 -0.5q-44 0 -76.5 47t-32.5 103z" />
<glyph unicode="&#xde;" horiz-adv-x="1138" d="M92 147v1164q0 75 43 117t111 42t110.5 -42t42.5 -117v-58h215q228 0 376.5 -135.5t148.5 -353.5q0 -145 -69.5 -257t-185.5 -170t-257 -58h-228v-132q0 -75 -42.5 -117t-110.5 -42t-111 42t-43 117zM399 549h209q95 0 153 61.5t58 155.5t-58 155.5t-153 61.5h-209v-434z " />
<glyph unicode="&#xdf;" horiz-adv-x="1138" d="M80 152v905q0 148 53 264t161.5 186t258.5 70q189 0 315.5 -118t126.5 -304q0 -89 -35 -168t-104 -121q84 -24 143 -88t85 -143.5t26 -169.5q0 -85 -32 -171.5t-88.5 -157.5t-142.5 -116t-185 -45q-89 0 -134 42t-45 106q0 29 11 51t23 33.5t41 22.5t42.5 14.5t50.5 11.5 q67 14 115.5 72t48.5 137q0 69 -19 116t-49.5 68.5t-67 34t-73 21t-67 21t-49.5 41t-19 75.5q0 39 13.5 65t34.5 38.5t47 21.5t52 20t47 28.5t34.5 52.5t13.5 87q0 59 -45.5 105.5t-114.5 46.5q-56 0 -93 -20.5t-54.5 -59t-24 -77.5t-6.5 -93v-905q0 -73 -41.5 -118.5 t-106.5 -45.5t-106 45.5t-41 118.5z" />
<glyph unicode="&#xe0;" d="M41 543q0 159 65 290.5t177 206t245 74.5q85 0 159 -34t122 -101q6 54 46.5 88.5t94.5 34.5q29 0 52 -7t38 -17.5t25 -28t15.5 -32t8 -37.5t3 -36t0.5 -35v-729q0 -31 -1 -50t-8.5 -49.5t-21.5 -48t-42.5 -31t-68.5 -13.5q-61 0 -93 31t-48 94q-117 -138 -281 -138 q-209 0 -348 160.5t-139 407.5zM336 543q0 -74 24 -139.5t78.5 -111.5t130.5 -46q73 0 126.5 45.5t77.5 111.5t24 140t-23.5 140.5t-77 113.5t-127.5 47q-77 0 -131.5 -47t-78 -113t-23.5 -141zM336 1456q0 44 33 85.5t77 41.5q26 0 78 -20l242 -99l16 -8q26 -13 42 -36 t16 -46q0 -56 -32.5 -102.5t-76.5 -46.5h-18.5t-11 1.5t-9.5 3t-15.5 6t-27.5 9.5l-229 90q-84 29 -84 121z" />
<glyph unicode="&#xe1;" d="M41 543q0 159 65 290.5t177 206t245 74.5q85 0 159 -34t122 -101q6 54 46.5 88.5t94.5 34.5q29 0 52 -7t38 -17.5t25 -28t15.5 -32t8 -37.5t3 -36t0.5 -35v-729q0 -31 -1 -50t-8.5 -49.5t-21.5 -48t-42.5 -31t-68.5 -13.5q-61 0 -93 31t-48 94q-117 -138 -281 -138 q-209 0 -348 160.5t-139 407.5zM336 543q0 -74 24 -139.5t78.5 -111.5t130.5 -46q73 0 126.5 45.5t77.5 111.5t24 140t-23.5 140.5t-77 113.5t-127.5 47q-77 0 -131.5 -47t-78 -113t-23.5 -141zM336 1374q0 23 15.5 46t41.5 36l17 8l241 99q52 20 78 20q44 0 77.5 -41.5 t33.5 -85.5q0 -92 -84 -121l-230 -90q-15 -5 -27.5 -9.5t-15.5 -6t-9.5 -3t-11 -1.5h-18.5q-44 0 -76 46.5t-32 102.5z" />
<glyph unicode="&#xe2;" d="M41 543q0 159 65 290.5t177 206t245 74.5q85 0 159 -34t122 -101q6 54 46.5 88.5t94.5 34.5q29 0 52 -7t38 -17.5t25 -28t15.5 -32t8 -37.5t3 -36t0.5 -35v-729q0 -31 -1 -50t-8.5 -49.5t-21.5 -48t-42.5 -31t-68.5 -13.5q-61 0 -93 31t-48 94q-117 -138 -281 -138 q-209 0 -348 160.5t-139 407.5zM276 1352q0 88 95 125l217 88l217 -88q47 -20 70.5 -49t23.5 -76q0 -50 -38 -90.5t-87 -40.5q-18 0 -106 36l-80 35l-80 -35q-88 -36 -107 -36q-49 0 -87 40.5t-38 90.5zM336 543q0 -74 24 -139.5t78.5 -111.5t130.5 -46q73 0 126.5 45.5 t77.5 111.5t24 140t-23.5 140.5t-77 113.5t-127.5 47q-77 0 -131.5 -47t-78 -113t-23.5 -141z" />
<glyph unicode="&#xe3;" d="M41 543q0 159 65 290.5t177 206t245 74.5q85 0 159 -34t122 -101q6 54 46.5 88.5t94.5 34.5q29 0 52 -7t38 -17.5t25 -28t15.5 -32t8 -37.5t3 -36t0.5 -35v-729q0 -31 -1 -50t-8.5 -49.5t-21.5 -48t-42.5 -31t-68.5 -13.5q-61 0 -93 31t-48 94q-117 -138 -281 -138 q-209 0 -348 160.5t-139 407.5zM248 1346q0 82 56 131t138 49q50 0 131 -25q76 -26 99 -26q19 0 74.5 29.5t84.5 29.5q45 0 71 -34.5t26 -80.5q0 -74 -63 -126t-138 -52q-37 0 -123.5 25.5t-107.5 25.5q-23 0 -66 -26.5t-80 -26.5q-38 0 -70 34t-32 73zM336 543 q0 -74 24 -139.5t78.5 -111.5t130.5 -46q73 0 126.5 45.5t77.5 111.5t24 140t-23.5 140.5t-77 113.5t-127.5 47q-77 0 -131.5 -47t-78 -113t-23.5 -141z" />
<glyph unicode="&#xe4;" d="M41 543q0 159 65 290.5t177 206t245 74.5q85 0 159 -34t122 -101q6 54 46.5 88.5t94.5 34.5q29 0 52 -7t38 -17.5t25 -28t15.5 -32t8 -37.5t3 -36t0.5 -35v-729q0 -31 -1 -50t-8.5 -49.5t-21.5 -48t-42.5 -31t-68.5 -13.5q-61 0 -93 31t-48 94q-117 -138 -281 -138 q-209 0 -348 160.5t-139 407.5zM215 1382q0 62 43 105t104 43q62 0 105 -43t43 -105q0 -61 -43 -104t-105 -43t-104.5 42.5t-42.5 104.5zM336 543q0 -74 24 -139.5t78.5 -111.5t130.5 -46q73 0 126.5 45.5t77.5 111.5t24 140t-23.5 140.5t-77 113.5t-127.5 47 q-77 0 -131.5 -47t-78 -113t-23.5 -141zM666 1382q0 62 43 105t104 43t104.5 -43t43.5 -105q0 -61 -43 -104t-105 -43q-61 0 -104 42.5t-43 104.5z" />
<glyph unicode="&#xe5;" d="M41 543q0 159 65 290.5t177 206t245 74.5q85 0 159 -34t122 -101q6 54 46.5 88.5t94.5 34.5q29 0 52 -7t38 -17.5t25 -28t15.5 -32t8 -37.5t3 -36t0.5 -35v-729q0 -31 -1 -50t-8.5 -49.5t-21.5 -48t-42.5 -31t-68.5 -13.5q-61 0 -93 31t-48 94q-117 -138 -281 -138 q-209 0 -348 160.5t-139 407.5zM336 543q0 -74 24 -139.5t78.5 -111.5t130.5 -46q73 0 126.5 45.5t77.5 111.5t24 140t-23.5 140.5t-77 113.5t-127.5 47q-77 0 -131.5 -47t-78 -113t-23.5 -141zM385 1389q0 85 59 143.5t144 58.5t144 -58.5t59 -143.5t-59 -144t-144 -59 t-144 59t-59 144zM496 1389q0 -38 27 -65.5t65 -27.5t65 27.5t27 65.5t-27 65t-65 27t-65 -27t-27 -65z" />
<glyph unicode="&#xe6;" horiz-adv-x="1857" d="M41 543q0 159 65 290.5t177 206t245 74.5q85 0 160 -34.5t125 -100.5h4q0 58 33.5 90.5t83.5 32.5q90 0 110 -82q100 94 259 94q140 0 263.5 -73.5t197 -197.5t73.5 -265q0 -67 -31 -99.5t-98 -32.5h-629q14 -104 93 -158.5t188 -54.5q51 0 104 18.5t89 41t75 41t64 18.5 q47 0 83.5 -39.5t36.5 -87.5q0 -61 -74.5 -120t-186.5 -94.5t-220 -35.5q-171 0 -287 86q-12 -35 -36 -54t-74 -19q-125 0 -125 125h-4q-110 -138 -277 -138q-209 0 -348 160.5t-139 407.5zM336 543q0 -74 24 -139.5t78.5 -111.5t130.5 -46q73 0 126.5 45.5t77.5 111.5 t24 140t-23.5 140.5t-77 113.5t-127.5 47q-77 0 -131.5 -47t-78 -113t-23.5 -141zM1075 643h467q-12 100 -73.5 162.5t-159.5 62.5q-96 0 -159.5 -64t-74.5 -161z" />
<glyph unicode="&#xe7;" horiz-adv-x="948" d="M41 543q0 111 39.5 215t107.5 182.5t167.5 126t213.5 47.5q50 0 107 -9.5t116.5 -29.5t98.5 -58.5t39 -88.5q0 -51 -32 -96.5t-81 -45.5q-35 0 -109 29t-124 29q-80 0 -138 -44.5t-84 -111t-26 -145.5q0 -75 28 -141.5t86 -111t134 -44.5q42 0 124 30.5t95 30.5 q52 0 89.5 -38t37.5 -91q0 -48 -32.5 -86.5t-83 -61t-101.5 -35t-99 -15.5l-63 -84q7 0 22.5 3t22.5 3q66 0 110 -42t44 -114q0 -63 -37 -108t-87 -64.5t-104 -19.5q-28 0 -54.5 3.5t-58.5 13.5t-51.5 31.5t-19.5 53.5q0 23 13.5 38t35.5 15q9 0 43.5 -9.5t54.5 -10.5 q68 -4 68 57q0 20 -5.5 32t-17 17t-21 6.5t-26.5 1.5q-3 0 -16.5 1.5t-17.5 2t-13 3.5t-12.5 7.5t-6.5 13t-3 19.5q0 22 45 82l35 50q-135 19 -239 99.5t-159 201t-55 260.5z" />
<glyph unicode="&#xe8;" horiz-adv-x="1099" d="M20 543q0 150 66.5 280t189 210.5t273.5 80.5q115 0 216.5 -49t169 -127t106 -172.5t38.5 -187.5q0 -67 -31 -99.5t-98 -32.5h-628q14 -104 91.5 -158.5t186.5 -54.5q51 0 105 18.5t90 41t75 41t64 18.5q47 0 84 -39.5t37 -87.5q0 -61 -74.5 -120t-187 -94.5 t-220.5 -35.5q-246 0 -399.5 160.5t-153.5 407.5zM299 1456q0 44 33.5 85.5t77.5 41.5q25 0 77 -20l242 -99l16 -8q26 -13 42 -36t16 -46q0 -56 -32.5 -102.5t-76.5 -46.5h-18.5t-11 1.5t-9.5 3t-15.5 6t-27.5 9.5l-229 90q-84 29 -84 121zM315 643h469q-12 100 -73.5 162.5 t-161.5 62.5q-96 0 -159.5 -64t-74.5 -161z" />
<glyph unicode="&#xe9;" horiz-adv-x="1099" d="M20 543q0 150 66.5 280t189 210.5t273.5 80.5q115 0 216.5 -49t169 -127t106 -172.5t38.5 -187.5q0 -67 -31 -99.5t-98 -32.5h-628q14 -104 91.5 -158.5t186.5 -54.5q51 0 105 18.5t90 41t75 41t64 18.5q47 0 84 -39.5t37 -87.5q0 -61 -74.5 -120t-187 -94.5 t-220.5 -35.5q-246 0 -399.5 160.5t-153.5 407.5zM299 1374q0 23 15.5 46t41.5 36l17 8l241 99q52 20 78 20q44 0 77.5 -41.5t33.5 -85.5q0 -92 -84 -121l-230 -90q-15 -5 -27 -9.5t-15 -6t-9.5 -3t-11 -1.5h-18.5q-44 0 -76.5 46.5t-32.5 102.5zM315 643h469 q-12 100 -73.5 162.5t-161.5 62.5q-96 0 -159.5 -64t-74.5 -161z" />
<glyph unicode="&#xea;" horiz-adv-x="1099" d="M20 543q0 150 66.5 280t189 210.5t273.5 80.5q115 0 216.5 -49t169 -127t106 -172.5t38.5 -187.5q0 -67 -31 -99.5t-98 -32.5h-628q14 -104 91.5 -158.5t186.5 -54.5q51 0 105 18.5t90 41t75 41t64 18.5q47 0 84 -39.5t37 -87.5q0 -61 -74.5 -120t-187 -94.5 t-220.5 -35.5q-246 0 -399.5 160.5t-153.5 407.5zM240 1352q0 88 94 125l217 88l217 -88q47 -20 70.5 -49t23.5 -76q0 -50 -38 -90.5t-87 -40.5q-18 0 -106 36l-80 35l-80 -35q-88 -36 -106 -36q-49 0 -87 40.5t-38 90.5zM315 643h469q-12 100 -73.5 162.5t-161.5 62.5 q-96 0 -159.5 -64t-74.5 -161z" />
<glyph unicode="&#xeb;" horiz-adv-x="1099" d="M20 543q0 150 66.5 280t189 210.5t273.5 80.5q115 0 216.5 -49t169 -127t106 -172.5t38.5 -187.5q0 -67 -31 -99.5t-98 -32.5h-628q14 -104 91.5 -158.5t186.5 -54.5q51 0 105 18.5t90 41t75 41t64 18.5q47 0 84 -39.5t37 -87.5q0 -61 -74.5 -120t-187 -94.5 t-220.5 -35.5q-246 0 -399.5 160.5t-153.5 407.5zM178 1382q0 62 43 105t105 43q61 0 104 -43t43 -105t-42.5 -104.5t-104.5 -42.5t-105 43t-43 104zM315 643h469q-12 100 -73.5 162.5t-161.5 62.5q-96 0 -159.5 -64t-74.5 -161zM629 1382q0 62 43 105t104 43q62 0 105 -43 t43 -105q0 -61 -43 -104t-105 -43t-104.5 42.5t-42.5 104.5z" />
<glyph unicode="&#xec;" horiz-adv-x="454" d="M-25 1456q0 44 33.5 85.5t77.5 41.5q26 0 78 -20l242 -99l16 -8q26 -13 41.5 -36t15.5 -46q0 -56 -32 -102.5t-76 -46.5h-18.5t-11 1.5t-9.5 3t-15.5 6t-27.5 9.5l-230 90q-84 29 -84 121zM80 152v786q0 73 41 118.5t106 45.5t106.5 -45.5t41.5 -118.5v-786 q0 -73 -41.5 -118.5t-106.5 -45.5t-106 45.5t-41 118.5z" />
<glyph unicode="&#xed;" horiz-adv-x="454" d="M-25 1374q0 23 16 46t42 36l16 8l242 99q52 20 78 20q44 0 77 -41.5t33 -85.5q0 -92 -84 -121l-229 -90q-15 -5 -27.5 -9.5t-15.5 -6t-9.5 -3t-11 -1.5h-18.5q-44 0 -76.5 46.5t-32.5 102.5zM80 152v786q0 73 41 118.5t106 45.5t106.5 -45.5t41.5 -118.5v-786 q0 -73 -41.5 -118.5t-106.5 -45.5t-106 45.5t-41 118.5z" />
<glyph unicode="&#xee;" horiz-adv-x="454" d="M-84 1352q0 88 94 125l217 88l217 -88q47 -20 71 -49t24 -76q0 -50 -38 -90.5t-87 -40.5q-19 0 -107 36l-80 35l-80 -35q-88 -36 -106 -36q-49 0 -87 40.5t-38 90.5zM80 152v786q0 73 41 118.5t106 45.5t106.5 -45.5t41.5 -118.5v-786q0 -73 -41.5 -118.5t-106.5 -45.5 t-106 45.5t-41 118.5z" />
<glyph unicode="&#xef;" horiz-adv-x="454" d="M-145 1382q0 62 43 105t104 43q62 0 105 -43t43 -105q0 -61 -43 -104t-105 -43t-104.5 42.5t-42.5 104.5zM80 152v786q0 73 41 118.5t106 45.5t106.5 -45.5t41.5 -118.5v-786q0 -73 -41.5 -118.5t-106.5 -45.5t-106 45.5t-41 118.5zM305 1382q0 62 43.5 105t104.5 43 t104 -43t43 -105t-43 -104.5t-104 -42.5q-62 0 -105 43t-43 104z" />
<glyph unicode="&#xf0;" horiz-adv-x="1138" d="M41 543q0 96 37.5 190.5t101.5 168.5t158 119.5t199 45.5q151 0 231 -88l4 4q-39 86 -98.5 156t-130.5 112l-135 -71q-88 -48 -117 -54q-11 -2 -21 -2q-28 0 -49.5 19t-21.5 55q0 19 6.5 33.5t20.5 26t24 17.5t29 15l102 53q-85 36 -113 60q-29 28 -30 59q0 67 38.5 97 t120.5 30q101 0 267 -96l163 88q45 23 74 23q30 0 51 -22.5t21 -55.5q0 -29 -17 -46t-65 -42l-107 -58q169 -159 241.5 -346.5t72.5 -441.5q0 -177 -65.5 -317t-186.5 -220t-277 -80q-154 0 -276 78t-187 207t-65 283zM336 543q0 -74 24 -139.5t78.5 -111.5t130.5 -46 t131 46t79 111.5t24 139.5q-3 111 -65.5 188.5t-170.5 77.5q-101 0 -166 -81t-65 -185z" />
<glyph unicode="&#xf1;" horiz-adv-x="1138" d="M84 152v786q0 73 41 118.5t106 45.5q57 0 92.5 -29t43.5 -80q86 121 284 121q178 0 291 -107t113 -290v-565q0 -73 -41.5 -118.5t-106.5 -45.5t-106 45.5t-41 118.5v514q0 98 -54.5 150t-138.5 52q-88 0 -138 -56.5t-50 -145.5v-514q0 -73 -41.5 -118.5t-106.5 -45.5 t-106 45.5t-41 118.5zM229 1346q0 82 56.5 131t138.5 49q50 0 131 -25q76 -26 98 -26q19 0 75 29.5t85 29.5q45 0 70.5 -34.5t25.5 -80.5q0 -74 -62.5 -126t-137.5 -52q-37 0 -124 25.5t-108 25.5q-23 0 -65.5 -26.5t-79.5 -26.5q-38 0 -70.5 34t-32.5 73z" />
<glyph unicode="&#xf2;" horiz-adv-x="1138" d="M41 543q0 111 39.5 215t107.5 182.5t167.5 126t213.5 47.5q151 0 273.5 -80.5t189 -210.5t66.5 -280q0 -115 -38.5 -218.5t-106.5 -181t-168 -123t-216 -45.5q-154 0 -276 78t-187 207t-65 283zM317 1456q0 44 33.5 85.5t77.5 41.5q26 0 78 -20l242 -99l16 -8 q26 -13 41.5 -36t15.5 -46q0 -56 -32 -102.5t-76 -46.5h-18.5t-11 1.5t-9.5 3t-15.5 6t-27.5 9.5l-230 90q-84 29 -84 121zM336 543q0 -74 24 -139.5t78.5 -111.5t130.5 -46t131 46t79 111.5t24 139.5q0 75 -23.5 141t-78.5 113t-132 47t-131.5 -47t-78 -113t-23.5 -141z " />
<glyph unicode="&#xf3;" horiz-adv-x="1138" d="M41 543q0 111 39.5 215t107.5 182.5t167.5 126t213.5 47.5q151 0 273.5 -80.5t189 -210.5t66.5 -280q0 -115 -38.5 -218.5t-106.5 -181t-168 -123t-216 -45.5q-154 0 -276 78t-187 207t-65 283zM317 1374q0 23 16 46t42 36l16 8l242 99q52 20 78 20q44 0 77 -41.5 t33 -85.5q0 -92 -84 -121l-229 -90q-15 -5 -27.5 -9.5t-15.5 -6t-9.5 -3t-11 -1.5h-18.5q-44 0 -76.5 46.5t-32.5 102.5zM336 543q0 -74 24 -139.5t78.5 -111.5t130.5 -46t131 46t79 111.5t24 139.5q0 75 -23.5 141t-78.5 113t-132 47t-131.5 -47t-78 -113t-23.5 -141z" />
<glyph unicode="&#xf4;" horiz-adv-x="1138" d="M41 543q0 111 39.5 215t107.5 182.5t167.5 126t213.5 47.5q151 0 273.5 -80.5t189 -210.5t66.5 -280q0 -115 -38.5 -218.5t-106.5 -181t-168 -123t-216 -45.5q-154 0 -276 78t-187 207t-65 283zM258 1352q0 88 94 125l217 88l217 -88q47 -20 71 -49t24 -76 q0 -50 -38 -90.5t-87 -40.5q-19 0 -107 36l-80 35l-80 -35q-88 -36 -106 -36q-49 0 -87 40.5t-38 90.5zM336 543q0 -74 24 -139.5t78.5 -111.5t130.5 -46t131 46t79 111.5t24 139.5q0 75 -23.5 141t-78.5 113t-132 47t-131.5 -47t-78 -113t-23.5 -141z" />
<glyph unicode="&#xf5;" horiz-adv-x="1138" d="M41 543q0 111 39.5 215t107.5 182.5t167.5 126t213.5 47.5q151 0 273.5 -80.5t189 -210.5t66.5 -280q0 -115 -38.5 -218.5t-106.5 -181t-168 -123t-216 -45.5q-154 0 -276 78t-187 207t-65 283zM229 1346q0 82 56.5 131t138.5 49q50 0 131 -25q76 -26 98 -26 q19 0 75 29.5t85 29.5q45 0 70.5 -34.5t25.5 -80.5q0 -74 -62.5 -126t-137.5 -52q-37 0 -124 25.5t-108 25.5q-23 0 -65.5 -26.5t-79.5 -26.5q-38 0 -70.5 34t-32.5 73zM336 543q0 -74 24 -139.5t78.5 -111.5t130.5 -46t131 46t79 111.5t24 139.5q0 75 -23.5 141t-78.5 113 t-132 47t-131.5 -47t-78 -113t-23.5 -141z" />
<glyph unicode="&#xf6;" horiz-adv-x="1138" d="M41 543q0 111 39.5 215t107.5 182.5t167.5 126t213.5 47.5q151 0 273.5 -80.5t189 -210.5t66.5 -280q0 -115 -38.5 -218.5t-106.5 -181t-168 -123t-216 -45.5q-154 0 -276 78t-187 207t-65 283zM197 1382q0 62 43 105t104 43q62 0 105 -43t43 -105q0 -61 -43 -104 t-105 -43t-104.5 42.5t-42.5 104.5zM336 543q0 -74 24 -139.5t78.5 -111.5t130.5 -46t131 46t79 111.5t24 139.5q0 75 -23.5 141t-78.5 113t-132 47t-131.5 -47t-78 -113t-23.5 -141zM647 1382q0 62 43.5 105t104.5 43t104 -43t43 -105t-43 -104.5t-104 -42.5q-62 0 -105 43 t-43 104z" />
<glyph unicode="&#xf7;" horiz-adv-x="1228" d="M72 518q0 56 33 89.5t90 33.5h839q57 0 90 -33.5t33 -89.5t-33 -89.5t-90 -33.5h-839q-57 0 -90 33.5t-33 89.5zM455 94q0 66 46.5 113t112.5 47t113 -47t47 -113t-47 -113t-113 -47t-112.5 47t-46.5 113zM455 942q0 66 46.5 113t112.5 47t113 -47t47 -113t-47 -113 t-113 -47t-112.5 47t-46.5 113z" />
<glyph unicode="&#xf8;" horiz-adv-x="1138" d="M10 39q0 34 21 55l108 113q-98 146 -98 336q0 111 39.5 215t107.5 182.5t167.5 126t213.5 47.5q186 0 326 -121l94 99q27 30 55 30q35 0 59.5 -25t24.5 -59q0 -35 -20 -55l-107 -111q97 -153 97 -329q0 -115 -38.5 -218.5t-106.5 -181t-168 -123t-216 -45.5 q-188 0 -321 111l-103 -106q-25 -25 -51 -25q-35 0 -59.5 25t-24.5 59zM336 543q0 -61 18 -113l351 365q-52 49 -136 49q-77 0 -131.5 -47t-78 -113t-23.5 -141zM442 291q51 -45 127 -45t131 46t79 111.5t24 139.5q0 53 -15 108z" />
<glyph unicode="&#xf9;" horiz-adv-x="1138" d="M84 406v532q0 73 41 118.5t106 45.5t106.5 -45.5t41.5 -118.5v-526q0 -88 56 -139.5t134 -51.5t134.5 51.5t56.5 139.5v526q0 73 41 118.5t106 45.5t106.5 -45.5t41.5 -118.5v-532q0 -199 -128 -315t-358 -116t-357.5 116t-127.5 315zM317 1456q0 44 33.5 85.5t77.5 41.5 q26 0 78 -20l242 -99l16 -8q26 -13 41.5 -36t15.5 -46q0 -56 -32 -102.5t-76 -46.5h-18.5t-11 1.5t-9.5 3t-15.5 6t-27.5 9.5l-230 90q-84 29 -84 121z" />
<glyph unicode="&#xfa;" horiz-adv-x="1138" d="M84 406v532q0 73 41 118.5t106 45.5t106.5 -45.5t41.5 -118.5v-526q0 -88 56 -139.5t134 -51.5t134.5 51.5t56.5 139.5v526q0 73 41 118.5t106 45.5t106.5 -45.5t41.5 -118.5v-532q0 -199 -128 -315t-358 -116t-357.5 116t-127.5 315zM317 1374q0 23 16 46t42 36l16 8 l242 99q52 20 78 20q44 0 77 -41.5t33 -85.5q0 -92 -84 -121l-229 -90q-15 -5 -27.5 -9.5t-15.5 -6t-9.5 -3t-11 -1.5h-18.5q-44 0 -76.5 46.5t-32.5 102.5z" />
<glyph unicode="&#xfb;" horiz-adv-x="1138" d="M84 406v532q0 73 41 118.5t106 45.5t106.5 -45.5t41.5 -118.5v-526q0 -88 56 -139.5t134 -51.5t134.5 51.5t56.5 139.5v526q0 73 41 118.5t106 45.5t106.5 -45.5t41.5 -118.5v-532q0 -199 -128 -315t-358 -116t-357.5 116t-127.5 315zM258 1352q0 88 94 125l217 88 l217 -88q47 -20 71 -49t24 -76q0 -50 -38 -90.5t-87 -40.5q-19 0 -107 36l-80 35l-80 -35q-88 -36 -106 -36q-49 0 -87 40.5t-38 90.5z" />
<glyph unicode="&#xfc;" horiz-adv-x="1138" d="M84 406v532q0 73 41 118.5t106 45.5t106.5 -45.5t41.5 -118.5v-526q0 -88 56 -139.5t134 -51.5t134.5 51.5t56.5 139.5v526q0 73 41 118.5t106 45.5t106.5 -45.5t41.5 -118.5v-532q0 -199 -128 -315t-358 -116t-357.5 116t-127.5 315zM197 1382q0 62 43 105t104 43 q62 0 105 -43t43 -105q0 -61 -43 -104t-105 -43t-104.5 42.5t-42.5 104.5zM647 1382q0 62 43.5 105t104.5 43t104 -43t43 -105t-43 -104.5t-104 -42.5q-62 0 -105 43t-43 104z" />
<glyph unicode="&#xfd;" horiz-adv-x="985" d="M-4 975q0 53 45 90t94 37q108 0 148 -105l202 -555l217 555q40 105 148 105q49 0 94 -37t45 -90q0 -44 -14 -76l-494 -1229q-48 -116 -139 -116q-71 0 -112.5 38t-41.5 89q0 35 19 86l129 319l-326 813q-14 40 -14 76zM242 1374q0 23 15.5 46t41.5 36l16 8l242 99 q52 20 78 20q44 0 77 -41.5t33 -85.5q0 -92 -83 -121l-230 -90q-15 -5 -27.5 -9.5t-15.5 -6t-9.5 -3t-11 -1.5h-18.5q-44 0 -76 46.5t-32 102.5z" />
<glyph unicode="&#xfe;" d="M84 -283v1696q0 73 41 118.5t106 45.5t106.5 -45.5t41.5 -118.5v-434h4q36 64 111 99.5t155 35.5q108 0 200.5 -47.5t154 -125.5t96.5 -177.5t35 -204.5q0 -83 -20 -166t-60.5 -158t-96 -133t-133 -92.5t-166.5 -34.5q-162 0 -280 103v-361q0 -73 -41.5 -118t-106.5 -45 t-106 45t-41 118zM379 537q0 -55 14.5 -106t41.5 -93t72.5 -67t102.5 -25q73 0 127 47t78.5 114t24.5 140q0 72 -24.5 138t-78.5 112.5t-127 46.5q-77 0 -131 -48t-77 -115.5t-23 -143.5z" />
<glyph unicode="&#xff;" horiz-adv-x="985" d="M-4 975q0 53 45 90t94 37q108 0 148 -105l202 -555l217 555q40 105 148 105q49 0 94 -37t45 -90q0 -44 -14 -76l-494 -1229q-48 -116 -139 -116q-71 0 -112.5 38t-41.5 89q0 35 19 86l129 319l-326 813q-14 40 -14 76zM121 1382q0 62 43 105t104 43q62 0 105 -43t43 -105 q0 -61 -43 -104t-105 -43t-104.5 42.5t-42.5 104.5zM571 1382q0 62 43.5 105t104.5 43t104 -43t43 -105t-43 -104.5t-104 -42.5q-62 0 -105 43t-43 104z" />
<glyph unicode="&#x152;" horiz-adv-x="1972" d="M35 729q0 212 88 383.5t249.5 271t366.5 99.5q113 0 218.5 -38t181.5 -116l4 4q0 80 28.5 102.5t118.5 22.5h494q69 0 107 -41.5t38 -99.5q0 -57 -38.5 -99t-106.5 -42h-365v-299h340q71 0 110.5 -42t39.5 -100q0 -57 -40 -99t-110 -42h-340v-311h383q69 0 107.5 -42 t38.5 -100q0 -57 -39 -99t-107 -42h-569q-27 0 -45 7t-27 16t-14 27.5t-5.5 30.5t-0.5 36h-4q-106 -142 -398 -142q-204 0 -365.5 100t-250 271.5t-88.5 382.5zM354 729q0 -129 41 -233.5t130 -171t214 -66.5t214 66.5t130 171t41 233.5q0 94 -24.5 178t-71.5 150 t-121.5 104.5t-167.5 38.5t-167.5 -38.5t-121.5 -104.5t-71.5 -150t-24.5 -178z" />
<glyph unicode="&#x153;" horiz-adv-x="1857" d="M41 543q0 111 39.5 215t107.5 182.5t167.5 126t213.5 47.5q215 0 381 -166q59 73 150 119.5t203 46.5q140 0 263.5 -73.5t197 -197.5t73.5 -265q0 -67 -31 -99.5t-98 -32.5h-629q14 -104 93 -158.5t188 -54.5q51 0 104 18.5t89 41t75 41t64 18.5q47 0 83.5 -39.5 t36.5 -87.5q0 -61 -74.5 -120t-186.5 -94.5t-220 -35.5q-125 0 -225.5 45.5t-165.5 124.5q-139 -170 -371 -170q-154 0 -276 78t-187 207t-65 283zM336 543q0 -74 24 -139.5t78.5 -111.5t130.5 -46t131 46t79 111.5t24 139.5q0 75 -23.5 141t-78.5 113t-132 47t-131.5 -47 t-78 -113t-23.5 -141zM1073 643h469q-12 100 -73.5 162.5t-159.5 62.5q-95 0 -159.5 -64t-76.5 -161z" />
<glyph unicode="&#x178;" horiz-adv-x="1097" d="M-20 1321q0 62 41.5 105.5t105.5 43.5q85 0 127 -61l295 -428l295 428q42 61 127 61q64 0 105.5 -43.5t41.5 -105.5q0 -50 -28 -92l-388 -545v-547q0 -63 -38 -106t-115 -43t-115.5 43t-38.5 106v547l-387 545q-28 42 -28 92zM176 1714q0 62 43 105t105 43q61 0 104 -43 t43 -105t-42.5 -104.5t-104.5 -42.5t-105 43t-43 104zM627 1714q0 62 43 105t104 43q62 0 105 -43t43 -105q0 -61 -43 -104t-105 -43t-104.5 42.5t-42.5 104.5z" />
<glyph unicode="&#x2c6;" horiz-adv-x="454" d="M-84 1352q0 88 94 125l217 88l217 -88q47 -20 71 -49t24 -76q0 -50 -38 -90.5t-87 -40.5q-19 0 -107 36l-80 35l-80 -35q-88 -36 -106 -36q-49 0 -87 40.5t-38 90.5z" />
<glyph unicode="&#x2dc;" horiz-adv-x="454" d="M-113 1346q0 82 56.5 131t138.5 49q50 0 131 -25q76 -26 98 -26q19 0 75 29.5t85 29.5q45 0 70.5 -34.5t25.5 -80.5q0 -74 -62.5 -126t-137.5 -52q-37 0 -124 25.5t-108 25.5q-23 0 -65.5 -26.5t-79.5 -26.5q-38 0 -70.5 34t-32.5 73z" />
<glyph unicode="&#x2000;" horiz-adv-x="961" />
<glyph unicode="&#x2001;" horiz-adv-x="1923" />
<glyph unicode="&#x2002;" horiz-adv-x="961" />
<glyph unicode="&#x2003;" horiz-adv-x="1923" />
<glyph unicode="&#x2004;" horiz-adv-x="641" />
<glyph unicode="&#x2005;" horiz-adv-x="480" />
<glyph unicode="&#x2006;" horiz-adv-x="320" />
<glyph unicode="&#x2007;" horiz-adv-x="320" />
<glyph unicode="&#x2008;" horiz-adv-x="240" />
<glyph unicode="&#x2009;" horiz-adv-x="384" />
<glyph unicode="&#x200a;" horiz-adv-x="106" />
<glyph unicode="&#x2010;" horiz-adv-x="796" d="M63 592q0 56 30.5 91.5t86.5 39.5h436q56 -4 86.5 -39.5t30.5 -91.5q0 -54 -30.5 -88.5t-86.5 -38.5h-436q-56 4 -86.5 38.5t-30.5 88.5z" />
<glyph unicode="&#x2011;" horiz-adv-x="796" d="M63 592q0 56 30.5 91.5t86.5 39.5h436q56 -4 86.5 -39.5t30.5 -91.5q0 -54 -30.5 -88.5t-86.5 -38.5h-436q-56 4 -86.5 38.5t-30.5 88.5z" />
<glyph unicode="&#x2012;" horiz-adv-x="796" d="M63 592q0 56 30.5 91.5t86.5 39.5h436q56 -4 86.5 -39.5t30.5 -91.5q0 -54 -30.5 -88.5t-86.5 -38.5h-436q-56 4 -86.5 38.5t-30.5 88.5z" />
<glyph unicode="&#x2013;" horiz-adv-x="1024" d="M0 594q0 56 33 89.5t90 33.5h778q57 0 90 -33.5t33 -89.5t-33 -89.5t-90 -33.5h-778q-57 0 -90 33.5t-33 89.5z" />
<glyph unicode="&#x2014;" horiz-adv-x="2048" d="M-123 594q0 56 33 89.5t90 33.5h2048q57 0 90 -33.5t33 -89.5t-33 -89.5t-90 -33.5h-2048q-57 0 -90 33.5t-33 89.5z" />
<glyph unicode="&#x2018;" horiz-adv-x="491" d="M18 1024q0 26 25 82l170 307q19 32 55 51t64 19q56 0 98.5 -40t42.5 -95q0 -10 -3 -22.5t-5 -18t-10 -22.5t-9 -19l-172 -308q-17 -32 -52 -50.5t-64 -18.5q-56 0 -98 40t-42 95z" />
<glyph unicode="&#x2019;" horiz-adv-x="491" d="M18 1024q0 26 25 82l170 307q19 32 55 51t64 19q56 0 98.5 -40t42.5 -95q0 -10 -3 -22.5t-5 -18t-10 -22.5t-9 -19l-172 -308q-17 -32 -52 -50.5t-64 -18.5q-56 0 -98 40t-42 95z" />
<glyph unicode="&#x201a;" horiz-adv-x="491" d="M18 -139q0 26 25 82l170 307q19 32 54.5 50.5t64.5 18.5q56 0 98.5 -40t42.5 -95q0 -10 -3 -22.5t-5 -18t-10 -22.5t-9 -19l-172 -307q-17 -32 -52 -50.5t-64 -18.5q-56 0 -98 40t-42 95z" />
<glyph unicode="&#x201c;" horiz-adv-x="909" d="M18 1024q0 26 25 82l170 307q19 32 55 51t64 19q56 0 98.5 -40t42.5 -95q0 -10 -3 -22.5t-5 -18t-10 -22.5t-9 -19l-172 -308q-17 -32 -52 -50.5t-64 -18.5q-56 0 -98 40t-42 95zM436 1024q0 26 25 82l170 307q19 32 55 51t64 19q56 0 98.5 -40t42.5 -95q0 -10 -3 -22.5 t-5 -18t-10 -22.5t-9 -19l-172 -308q-17 -32 -52.5 -50.5t-64.5 -18.5q-56 0 -97.5 40t-41.5 95z" />
<glyph unicode="&#x201d;" horiz-adv-x="909" d="M18 1024q0 26 25 82l170 307q19 32 55 51t64 19q56 0 98.5 -40t42.5 -95q0 -10 -3 -22.5t-5 -18t-10 -22.5t-9 -19l-172 -308q-17 -32 -52 -50.5t-64 -18.5q-56 0 -98 40t-42 95zM436 1024q0 26 25 82l170 307q19 32 55 51t64 19q56 0 98.5 -40t42.5 -95q0 -10 -3 -22.5 t-5 -18t-10 -22.5t-9 -19l-172 -308q-17 -32 -52.5 -50.5t-64.5 -18.5q-56 0 -97.5 40t-41.5 95z" />
<glyph unicode="&#x201e;" horiz-adv-x="909" d="M18 -139q0 26 25 82l170 307q19 32 54.5 50.5t64.5 18.5q56 0 98.5 -40t42.5 -95q0 -10 -3 -22.5t-5 -18t-10 -22.5t-9 -19l-172 -307q-17 -32 -52 -50.5t-64 -18.5q-56 0 -98 40t-42 95zM436 -139q0 26 25 82l170 307q19 32 54.5 50.5t64.5 18.5q56 0 98.5 -40t42.5 -95 q0 -10 -3 -22.5t-5 -18t-10 -22.5t-9 -19l-172 -307q-17 -32 -52.5 -50.5t-64.5 -18.5q-56 0 -97.5 40t-41.5 95z" />
<glyph unicode="&#x2022;" horiz-adv-x="1024" d="M147 729q0 151 107 258t258 107t258 -107t107 -258t-107 -257.5t-258 -106.5t-258 106.5t-107 257.5z" />
<glyph unicode="&#x2026;" horiz-adv-x="2048" d="M182 135q0 66 47 113t113 47t113 -47t47 -113t-47 -113t-113 -47t-113 47t-47 113zM864 135q0 66 47 113t113 47t113 -47t47 -113t-47 -113t-113 -47t-113 47t-47 113zM1546 135q0 66 47 113t113 47t113 -47t47 -113t-47 -113t-113 -47t-113 47t-47 113z" />
<glyph unicode="&#x202f;" horiz-adv-x="384" />
<glyph unicode="&#x2039;" horiz-adv-x="606" d="M76 584q0 43 49 114l199 281q30 35 88 35q53 0 85.5 -33.5t32.5 -79.5q0 -47 -22 -78l-162 -248l162 -243q22 -33 22 -70q0 -55 -34 -92t-88 -37q-67 0 -103 51l-211 326q-18 26 -18 74z" />
<glyph unicode="&#x203a;" horiz-adv-x="606" d="M76 246q0 47 22 78l162 247l-162 244q-22 33 -22 70q0 55 34 92t89 37q66 0 102 -51l211 -326q18 -26 18 -74q0 -43 -49 -114l-198 -281q-30 -35 -88 -35q-53 0 -86 33.5t-33 79.5z" />
<glyph unicode="&#x205f;" horiz-adv-x="480" />
<glyph unicode="&#x20ac;" d="M35 475l67 191h82q-2 16 -2 63q0 39 2 57h-149l67 191h101q40 240 175.5 372t379.5 132q108 0 194 -23t127 -51v-270q-38 38 -108 64t-166 26q-252 0 -297 -250h504l-66 -191h-461q-2 -16 -2 -55q0 -49 2 -65h416l-65 -191h-326q44 -246 297 -246q178 0 272 86v-270 q-36 -27 -119.5 -47.5t-201.5 -20.5q-473 0 -553 498h-170z" />
<glyph unicode="&#x2122;" horiz-adv-x="2048" d="M86 1366q0 44 25.5 68t66.5 24h570q41 0 66.5 -24t25.5 -68t-25.5 -68t-66.5 -24h-162v-537q0 -56 -33 -89.5t-90 -33.5t-90 33.5t-33 89.5v537h-162q-41 0 -66.5 24t-25.5 68zM958 737v606q0 58 41.5 92.5t133.5 34.5q66 0 106.5 -24t75.5 -103l145 -372l146 372 q35 79 75.5 103t106.5 24q174 0 174 -127v-606q0 -60 -24.5 -91.5t-86.5 -31.5t-86 31t-24 92v426h-4l-148 -426q-10 -27 -15.5 -40.5t-16.5 -32.5t-23 -27.5t-31 -15.5t-43 -7q-30 0 -51.5 8t-36 27.5t-22 37t-19.5 50.5l-147 426h-4v-426q0 -60 -24.5 -91.5t-86.5 -31.5 t-86.5 31.5t-24.5 91.5z" />
<glyph unicode="&#xe000;" horiz-adv-x="1105" d="M0 0v1106h1106v-1106h-1106z" />
</font>
</defs>
</svg>
